<?xml version="1.0" encoding="UTF-8"?>
<!DOCTYPE svg PUBLIC "-//W3C//DTD SVG 1.1//EN" "http://www.w3.org/Graphics/SVG/1.1/DTD/svg11.dtd">
<svg version="1.1" xmlns="http://www.w3.org/2000/svg" xmlns:xlink="http://www.w3.org/1999/xlink" x="0px" y="0px" width="480" height="480" viewBox="0, 0, 480, 480">
  <g id="Background">
    <rect x="0" y="0" width="480" height="480" fill="#000000" fill-opacity="0"/>
  </g>
  <g id="Documents" display="none">
    <path d="M-0,-0 L480,-0 L480,480 L-0,480 z" fill="#DC8784"/>
    <path d="M319.929,67.024 L319.929,118.93 L371.265,118.93 L319.929,67.024 z M101.654,57.893 L101.654,421.722 L380.382,421.722 L380.382,131.247 L307.612,131.247 L307.612,57.893 L101.654,57.893 z M91.092,47.915 L318.387,47.915 L390.94,120.685 L390.94,432.281 L91.092,432.281 L91.092,47.915" fill="#1A1919"/>
    <path d="M319.929,67.024 L319.929,118.93 L371.265,118.93 L319.929,67.024 z M101.654,57.893 L101.654,421.722 L380.382,421.722 L380.382,131.247 L307.612,131.247 L307.612,57.893 L101.654,57.893 z M91.092,47.915 L318.387,47.915 L390.94,120.685 L390.94,432.281 L91.092,432.281 L91.092,47.915 z" fill-opacity="0" stroke="#1A1919" stroke-width="5.897"/>
  </g>
  <g id="ebook" display="none">
    <path d="M-0,-0 L480,-0 L480,480 L-0,480 z" fill="#DC8784"/>
    <path d="M319.929,67.024 L319.929,118.93 L371.265,118.93 L319.929,67.024 z M101.654,57.893 L101.654,421.722 L380.382,421.722 L380.382,131.247 L307.612,131.247 L307.612,57.893 L101.654,57.893 z M91.092,47.915 L318.387,47.915 L390.94,120.685 L390.94,432.281 L91.092,432.281 L91.092,47.915" fill="#1A1919"/>
    <path d="M319.929,67.024 L319.929,118.93 L371.265,118.93 L319.929,67.024 z M101.654,57.893 L101.654,421.722 L380.382,421.722 L380.382,131.247 L307.612,131.247 L307.612,57.893 L101.654,57.893 z M91.092,47.915 L318.387,47.915 L390.94,120.685 L390.94,432.281 L91.092,432.281 L91.092,47.915 z" fill-opacity="0" stroke="#1A1919" stroke-width="5.897"/>
    <text transform="matrix(0.542, 0.84, -0.84, 0.542, 243.374, 230.58)">
      <tspan x="-185.684" y="39.365" font-family="ArialRoundedMTBold" font-size="120" fill="#000000">eBook</tspan>
    </text>
  </g>
  <g id="Video" display="none">
    <path d="M-0,-0 L480,-0 L480,480 L-0,480 z" fill="#B8A38A"/>
    <path d="M131.776,193.206 C107.028,193.206 87.017,173.189 87.017,148.495 C87.017,123.765 107.028,103.687 131.776,103.687 C156.491,103.687 176.499,123.765 176.499,148.495 C176.499,173.189 156.491,193.206 131.776,193.206 z M129.712,71.165 C87.572,71.165 53.466,105.364 53.466,147.444 C53.466,189.589 87.572,223.724 129.712,223.724 C171.852,223.724 205.958,189.589 205.958,147.444 C205.958,105.364 171.852,71.165 129.712,71.165" fill="#1A1919"/>
    <path d="M131.776,193.206 C107.028,193.206 87.017,173.189 87.017,148.495 C87.017,123.765 107.028,103.687 131.776,103.687 C156.491,103.687 176.499,123.765 176.499,148.495 C176.499,173.189 156.491,193.206 131.776,193.206 z M129.712,71.165 C87.572,71.165 53.466,105.364 53.466,147.444 C53.466,189.589 87.572,223.724 129.712,223.724 C171.852,223.724 205.958,189.589 205.958,147.444 C205.958,105.364 171.852,71.165 129.712,71.165 z" fill-opacity="0" stroke="#1A1919" stroke-width="1.274"/>
    <path d="M156.061,148.495 C156.061,161.937 145.134,172.911 131.651,172.911 C118.169,172.911 107.274,161.937 107.274,148.495 C107.274,134.957 118.169,124.088 131.651,124.088 C145.134,124.088 156.061,134.957 156.061,148.495" fill="#1A1919"/>
    <path d="M156.061,148.495 C156.061,161.937 145.134,172.911 131.651,172.911 C118.169,172.911 107.274,161.937 107.274,148.495 C107.274,134.957 118.169,124.088 131.651,124.088 C145.134,124.088 156.061,134.957 156.061,148.495 z" fill-opacity="0" stroke="#1A1919" stroke-width="1.274"/>
    <path d="M283.186,193.206 C258.471,193.206 238.463,173.189 238.463,148.495 C238.463,123.765 258.471,103.687 283.186,103.687 C307.934,103.687 327.913,123.765 327.913,148.495 C327.913,173.189 307.934,193.206 283.186,193.206 z M281.158,71.165 C239.018,71.165 204.912,105.364 204.912,147.444 C204.912,189.589 239.018,223.724 281.158,223.724 C323.266,223.724 357.401,189.589 357.401,147.444 C357.401,105.364 323.266,71.165 281.158,71.165" fill="#1A1919"/>
    <path d="M283.186,193.206 C258.471,193.206 238.463,173.189 238.463,148.495 C238.463,123.765 258.471,103.687 283.186,103.687 C307.934,103.687 327.913,123.765 327.913,148.495 C327.913,173.189 307.934,193.206 283.186,193.206 z M281.158,71.165 C239.018,71.165 204.912,105.364 204.912,147.444 C204.912,189.589 239.018,223.724 281.158,223.724 C323.266,223.724 357.401,189.589 357.401,147.444 C357.401,105.364 323.266,71.165 281.158,71.165 z" fill-opacity="0" stroke="#1A1919" stroke-width="1.274"/>
    <path d="M307.503,148.495 C307.503,161.937 296.58,172.911 283.094,172.911 C269.612,172.911 258.716,161.937 258.716,148.495 C258.716,134.957 269.612,124.088 283.094,124.088 C296.58,124.088 307.503,134.957 307.503,148.495" fill="#1A1919"/>
    <path d="M307.503,148.495 C307.503,161.937 296.58,172.911 283.094,172.911 C269.612,172.911 258.716,161.937 258.716,148.495 C258.716,134.957 269.612,124.088 283.094,124.088 C296.58,124.088 307.503,134.957 307.503,148.495 z" fill-opacity="0" stroke="#1A1919" stroke-width="1.274"/>
    <path d="M107.366,381.379 L102.257,284.747 L102.257,219.673 L321.85,219.673 L320.832,231.884 L355.369,231.884 L412.315,194.256 L426.534,194.256 L426.534,385.43 L358.415,355.958 L315.755,354.911 L315.755,379.314 L107.366,381.379" fill="#1A1919"/>
    <path d="M107.366,381.379 L102.257,284.747 L102.257,219.673 L321.85,219.673 L320.832,231.884 L355.369,231.884 L412.315,194.256 L426.534,194.256 L426.534,385.43 L358.415,355.958 L315.755,354.911 L315.755,379.314 L107.366,381.379 z" fill-opacity="0" stroke="#1A1919" stroke-width="1.274"/>
  </g>
  <g id="Audio" display="none">
    <path d="M-0,-0 L480,-0 L480,480 L-0,480 z" fill="#6DBFDA"/>
    <path d="M69.905,324.217 L69.905,170.636 L154.122,170.636 L302.703,76.552 L302.703,403.448 L159.046,319.246 L69.905,324.217" fill="#1A1919"/>
    <path d="M69.905,324.217 L69.905,170.636 L154.122,170.636 L302.703,76.552 L302.703,403.448 L159.046,319.246 L69.905,324.217 z" fill-opacity="0" stroke="#1A1919" stroke-width="1.778"/>
    <path d="M328.127,175.546 C328.127,175.546 409.358,228.336 330.191,306.102" fill-opacity="0" stroke="#343534" stroke-width="5.541"/>
    <path d="M353.124,141.518 C353.124,141.518 403.818,169.974 410.066,234.567 C410.066,234.567 412.838,316.506 353.8,343.595" fill-opacity="0" stroke="#1A1919" stroke-width="5.541"/>
  </g>
  <g id="Image" display="none">
    <path d="M-0,0 L480,0 L480,480 L-0,480 z" fill="#FFF880"/>
    <path d="M125.834,290.877 L166.821,332.853 C218.503,288.259 264.546,241.103 304.949,191.36 C332.994,225.633 365.107,258.563 401.321,290.09 L401.321,396.219 C400.733,402.151 397.284,405.664 391.025,406.79 L81.793,406.79 C75.167,406.174 72.238,403.184 73.008,397.776 L73.008,344.995 L125.834,290.877 z M90.144,161.897 C90.144,146.164 95.57,132.679 106.386,121.552 C117.262,110.472 130.422,104.893 145.802,104.893 C161.182,104.893 174.31,110.472 185.097,121.552 C195.974,132.679 201.428,146.164 201.428,161.897 C201.428,177.676 195.974,191.096 185.097,202.162 C174.31,213.321 161.182,218.882 145.802,218.882 C130.422,218.882 117.262,213.321 106.386,202.162 C95.57,191.096 90.144,177.676 90.144,161.897 z M416.636,75.601 C415.371,64.831 409.671,59.006 399.685,58.172 L75.413,58.172 C65.89,58.172 61.08,63.103 61.08,72.875 L61.08,404.695 C61.08,405.404 61.145,406.127 61.205,406.79 C61.886,414.909 65.826,419.872 73.008,421.675 C74.643,422.092 76.432,422.352 78.37,422.402 L402.307,422.402 C411.891,422.402 416.636,417.531 416.636,407.73 L416.636,75.601 z M432.97,42.175 C435.158,44.673 436.266,48.218 436.266,52.842 L436.266,62.24 L436.177,62.24 L436.177,427.778 C436.177,437.5 431.399,442.385 421.905,442.385 L55.843,442.385 C55.719,442.385 55.598,442.385 55.441,442.385 L49.773,441.523 C47.706,440.878 46.043,439.83 44.778,438.427 C42.591,435.944 41.483,432.37 41.483,427.778 L41.483,418.379 L41.575,418.379 L41.575,52.842 C41.575,43.087 46.321,38.217 55.843,38.217 L421.905,38.217 C422.062,38.217 422.215,38.217 422.368,38.217 L428.04,39.065 C430.103,39.742 431.706,40.775 432.97,42.175" fill="#1A1919"/>
  </g>
  <g id="GEO" display="none">
    <path d="M0,-0 L480,-0 L480,480 L0,480 z" fill="#7CF8BC"/>
    <g>
      <path d="M359.774,183.95 C360.287,182.826 360.783,181.766 360.791,180.511 C360.811,177.649 357.337,176.667 355.065,176.842 C355.81,176.784 354.717,174.348 354.244,173.939 C353.455,173.261 352.741,172.915 352.558,171.798 C352.322,170.351 352.984,169.385 354.203,168.609 C354.718,168.282 354.903,167.8 354.873,167.335 C355.503,166.881 356.122,166.413 356.739,165.941 C357.909,165.042 359.202,164.307 360.025,163.058 C360.562,162.243 359.684,161.356 358.851,161.53 C357.499,161.812 356.543,162.736 355.504,163.593 C354.372,164.525 353.256,165.466 352.056,166.315 C351.795,166.501 351.64,166.74 351.567,166.991 C349.602,168.701 348.798,171.24 349.879,173.834 C350.439,175.169 351.823,175.674 351.847,176.812 C351.873,177.959 352.34,179.561 353.399,180.182 C354.045,180.56 354.943,180.473 355.661,180.529 C356.036,180.652 356.408,180.783 356.778,180.921 C356.767,180.983 356.752,181.055 356.74,181.15 C356.312,182.563 355.573,183.887 355.142,185.322 C354.533,187.351 354.239,189.512 354.125,191.625 C354.008,193.78 355.453,195.172 354.832,197.159 C353.977,197.153 353.125,197.137 352.272,197.088 C350.153,196.966 349.171,196.309 347.755,194.819 C345.938,192.902 345.105,191.013 342.562,189.906 C340.937,189.198 338.75,188.912 336.993,188.951 C335.122,188.994 333.66,190.661 332.421,191.845 C329.117,195.011 326.362,198.964 324.179,202.979 C322.953,205.228 323.285,207.548 324.237,209.818 C324.399,210.204 324.56,210.546 324.723,210.859 C324.463,212.045 324.219,213.237 324.037,214.434 C323.899,215.335 323.978,216.306 324.102,217.269 C324.112,217.356 324.122,217.445 324.136,217.531 C324.24,218.284 324.358,219.026 324.417,219.73 C324.473,220.391 324.74,221.009 324.99,221.612 C324.993,221.619 324.993,221.622 324.996,221.63 C324.965,221.84 324.918,222.05 324.857,222.259 C324.67,222.443 324.371,222.61 324.08,222.875 C323.506,223.404 322.718,223.505 322.213,224.01 C321.266,224.955 320.497,225.776 319.369,226.539 C316.659,228.374 314.66,230.97 312.214,233.104 C310.433,234.662 309.117,235.019 306.87,234.522 C305.824,234.289 304.984,233.42 304.208,232.744 C303.044,231.726 303.391,230.847 303.791,229.554 C303.917,229.15 303.313,229.002 303.168,229.383 C303.003,229.819 302.871,230.162 302.777,230.46 C302.41,229.471 301.079,228.887 300.144,229.514 C299.085,230.222 297.688,230.419 296.482,230.896 C294.576,231.65 292.7,231.996 290.772,232.594 C287.173,233.713 283.063,232.945 279.342,233.469 C276.255,233.903 272.961,235.479 270.523,237.369 C268.998,238.552 267.93,240.081 266.254,241.122 C264.901,241.963 263.514,242.272 262.065,242.559 C261.885,242.403 261.641,242.314 261.388,242.362 C259.245,241.794 256.719,241.739 255.013,241.238 C253.919,240.919 253.014,239.57 252.491,238.671 C251.851,237.571 250.847,236.742 249.781,236.086 C248.862,235.52 247.913,235.478 246.897,235.66 C245.849,235.849 245.43,236.96 244.369,236.957 C241.311,236.95 239.984,238.567 237.675,240.19 C236.335,241.131 235.229,241.879 233.839,240.84 C233.077,240.265 232.206,240.282 231.46,239.858 C229.631,238.824 227.872,240.682 226.119,240.762 C222.624,240.919 221.768,237.202 219.649,235.072 C218.951,234.373 217.948,233.915 217.106,233.423 C215.222,232.318 216.371,230.897 216.963,229.443 C217.347,228.501 217.263,227.528 217.032,226.57 C216.72,225.278 216.624,224.379 217.032,223.46 C218.621,224.601 219.804,225.932 220.594,227.766 C221.105,228.958 221.637,230.029 222.468,231.026 C223.665,232.464 226.653,232.832 227.581,230.849 C229.704,226.304 223.937,222.429 220.139,220.738 C220.247,219.953 220.108,219.263 219.97,218.44 C220.62,217.497 221.148,216.478 221.853,215.575 C222.807,214.353 224.49,214.096 225.802,213.472 C227.901,212.475 229.71,211.707 229.68,209.097 C229.679,208.957 229.672,208.821 229.663,208.686 C229.686,208.481 229.664,208.275 229.586,208.075 C229.293,206.468 228.306,205.381 226.468,205.253 C225.981,205.22 225.561,205.42 225.143,205.625 C224.775,205.476 224.428,205.315 224.117,205.135 C224.136,204.795 224.109,204.449 224.048,204.132 C223.86,203.166 223.505,202.206 223.254,201.24 C223.361,200.89 223.454,200.541 223.485,200.194 C223.586,199.12 223.562,198.026 223.546,196.936 C223.829,196.302 224.184,195.693 224.551,195.104 C225.412,193.724 226.993,191.124 225.906,189.454 C225.04,188.125 224.018,187.653 222.966,187.708 C220.881,186.316 218.833,189.096 217.787,191.202 C217.746,191.282 217.698,191.355 217.655,191.433 C217.586,191.523 217.519,191.611 217.455,191.699 C217.19,192.059 216.955,192.435 216.732,192.812 C215.69,194.135 214.41,195.314 213.649,196.88 C213.177,197.852 212.81,198.833 212.275,199.774 C211.718,200.762 210.82,201.098 209.854,201.291 C209.432,201.184 208.949,201.037 208.286,201.037 C205.625,201.039 203.791,202.287 202.476,204.537 C201.81,205.677 201.502,206.954 201.179,208.218 C200.793,209.74 199.751,210.983 199.64,212.591 C199.529,214.234 199.792,215.588 200.003,217.162 C200.167,218.388 199.373,219.562 199.809,220.832 C200.417,222.603 201.796,223.684 203.173,224.802 C203.414,225.302 203.791,225.547 204.222,225.685 C204.419,225.863 204.615,226.044 204.801,226.233 C205.555,226.995 206.598,227.522 207.514,228.052 C207.545,228.069 207.566,228.084 207.596,228.102 C207.737,228.926 207.633,229.807 207.478,230.687 C205.797,232.661 205.082,234.073 205.806,236.68 C206.428,238.911 205.233,240.571 204.626,242.509 C203.995,242.708 203.564,243.283 203.53,243.984 C203.469,245.274 202.936,246.468 202.135,247.472 C201.146,248.718 199.945,247.579 198.777,247.531 C198.053,247.502 197.486,247.091 196.687,247.293 C195.409,247.615 194.061,247.431 192.756,247.38 C191.076,247.313 190.242,248.557 190.291,250.166 C190.309,250.807 190.526,251.454 190.678,252.071 C190.74,252.315 190.869,252.13 190.169,252.098 C189.463,251.76 188.733,251.306 188.063,250.896 C187.715,250.63 187.33,250.409 186.906,250.231 C186.706,250.13 186.518,250.043 186.355,249.991 C186.028,249.888 185.675,249.819 185.302,249.783 C182.811,249.372 179.897,250.04 178.399,251.467 C178.181,251.584 177.972,251.704 177.782,251.827 C174.818,253.725 175.441,256.941 174.931,259.908 C174.659,261.491 172.437,262.055 172.434,260.111 C172.431,259.307 172.591,258.499 172.628,257.693 C172.673,256.711 172.898,255.757 173.104,254.802 C173.558,254.479 173.987,254.09 174.373,253.589 C175.123,252.62 173.93,251.273 173.087,251.936 C172.812,251.62 172.416,251.407 172.026,251.446 C168.309,251.813 166.383,255.074 163.831,257.415 C162.577,258.566 161.236,259.877 160.601,261.492 C160.185,262.542 159.825,263.506 159.641,264.623 C159.45,265.799 159.616,266.885 159.086,267.986 C157.814,270.627 156.753,273.551 155.257,276.151 C154.323,277.166 153.306,278.013 152.101,278.943 C149.348,281.063 146.761,282.786 143.706,284.382 C141.611,285.474 139.018,284.474 136.879,285.592 C135.128,286.505 134.479,288.266 134.511,290.157 C134.53,291.517 135.481,294.571 134.508,295.994 C133.48,295.612 132.72,295.218 131.38,295.451 C130.09,295.674 128.041,297.385 127.229,298.374 C126.394,299.39 126.716,300.659 126.098,301.634 C125.686,302.288 124.004,302.8 123.035,303.481 C121.825,304.331 120.874,305.46 119.879,306.536 C118.706,307.807 118.411,307.352 116.875,306.747 C114.971,305.996 113.001,305.388 110.964,305.139 C109.937,305.014 108.891,305.023 107.869,304.88 C107.784,304.85 107.716,304.829 107.666,304.815 C107.538,304.499 107.442,304.171 107.393,303.83 C107.138,302.718 106.122,302.188 105.087,302.075 C102.055,301.741 99.747,303.906 98.996,306.741 C98.121,310.052 101.4,312.567 103.708,314.174 C104.327,314.606 104.941,314.936 105.617,315.262 C106.29,315.587 106.859,315.393 106.469,316.136 C105.613,317.758 104.573,316.975 103.187,316.399 C101.904,315.867 100.765,315.617 99.375,315.651 C97.444,315.701 95.302,316.782 93.416,316.097 C90.558,315.061 88.25,313.271 85.097,313.306 C82.005,313.342 79.467,315.55 77.495,317.682 C76.754,318.484 75.681,318.593 75.049,319.668 C74.522,320.565 74.057,321.863 74.155,322.912 C74.371,325.193 74.844,327.183 77.304,328.049 C78.392,328.435 79.562,328.353 80.666,328.788 C82.118,329.36 83.307,329.791 84.568,330.775 C86.976,332.659 89.091,333.442 92.151,333.562 C93.823,333.63 95.18,334.857 96.331,335.927 C97.609,337.115 98.978,338.085 100.317,339.206 C100.612,339.453 100.9,339.709 101.186,339.965 C102.6,341.872 103.482,344.261 104.305,346.414 C105.232,348.828 106.601,351.218 106.588,353.853 C106.578,355.214 106.072,356.487 106.036,357.854 C105.991,359.667 105.598,361.46 105.166,363.213 C104.451,366.122 103.542,368.887 103.055,371.858 C102.552,374.906 102.138,377.945 101.213,380.901 C100.956,381.73 102.251,382.083 102.506,381.259 C103.514,378.005 103.929,374.64 104.471,371.286 C104.479,371.244 104.488,371.206 104.494,371.166 C104.342,372.463 104.279,373.767 104.375,375.087 C104.502,376.845 104.467,378.304 103.992,380.011 C103.408,382.121 102.397,382.573 100.412,383.085 C94.854,384.518 88.976,383.529 83.53,382.083 C81.174,381.455 78.924,379.878 76.648,378.952 C73.781,377.783 71.651,379.151 68.732,379.027 C66.01,378.912 64.44,377.943 61.728,378.905 C58.568,380.024 55.893,379.504 52.683,378.95 C48.05,378.152 43.993,380.563 41.586,384.315 C41.226,384.299 40.877,384.256 40.517,384.181 C40.021,383.481 39.198,383.138 38.081,382.833 C35.696,382.176 33.773,385.078 32.774,386.792 C31.682,388.672 31.08,390.961 32.153,392.983 C32.711,394.036 33.259,395.076 33.813,396.132 C34.372,397.198 34.182,398.537 34.227,399.702 C34.341,402.665 35.1,405.755 36.275,408.467 C37.853,412.119 37.053,415.854 36.377,419.637 C35.771,423.031 35.653,426.586 35.269,430.014 C35.056,431.918 35.137,434.176 34.544,436.001 C34.254,436.892 34.248,437.878 33.915,438.717 C33.378,438.8 32.888,439.208 32.822,439.95 C32.798,440.219 32.773,440.489 32.749,440.757 C32.65,441.837 33.967,442.398 34.806,441.937 C36.322,441.102 36.933,439.714 37.543,438.162 C38.629,435.401 39.296,432.582 40.029,429.693 C41.416,424.221 43.343,418.697 42.032,413.037 C41.437,410.479 39.887,408.249 38.771,405.907 C37.363,402.956 37.396,400.076 37.252,396.907 C37.2,395.748 36.681,394.571 36.201,393.499 C36.493,391.746 37.294,390.294 38.627,388.972 C38.853,388.75 39.085,388.564 39.323,388.39 C40.482,388.84 41.647,389.07 42.986,389.15 C43.783,389.193 44.725,388.664 45.081,387.948 C45.773,386.556 46.603,385.513 47.596,384.794 C47.878,384.699 48.159,384.604 48.445,384.515 C49.62,384.147 50.985,383.975 52.188,383.583 C52.441,383.595 52.701,383.615 52.968,383.645 C56.974,384.098 59.827,383.897 63.622,382.531 C64.958,382.051 66.57,382.821 67.924,382.971 C68.921,383.082 69.845,383.066 70.774,382.947 C71.291,383.2 71.808,383.46 72.356,383.688 C75.282,384.912 78.27,385.926 81.202,387.141 C83.722,388.184 86.468,389.075 89.209,389.023 C90.267,389.002 91.305,388.787 92.319,388.462 C95.69,388.733 99.09,388.463 102.415,387.545 C105.228,386.769 106.986,385.475 107.964,382.64 C108.441,381.261 108.684,379.881 108.843,378.431 C109.08,376.268 109.492,374.214 109.834,372.063 C110.365,368.747 110.939,364.968 112.045,361.808 C113.111,358.763 113.131,355.924 112.073,352.914 C111.21,350.46 110.925,347.936 109.787,345.528 C108.412,342.619 106.051,340.216 103.771,338.008 C101.618,335.921 99.135,333.668 96.677,331.961 C93.973,330.083 90.793,330.89 88.112,329.273 C86.891,328.535 86.127,327.052 85.024,326.15 C84.154,325.44 83.06,324.751 82.093,324.185 C81.527,323.851 80.827,323.691 80.196,323.542 C79.603,323.402 79.151,323.074 79.246,323.532 C79.134,323.086 79.162,322.72 78.911,322.238 C78.727,321.884 79.118,321.884 79.551,321.629 C80.373,321.148 80.832,320.106 81.463,319.415 C82.42,318.365 83.547,317.642 84.911,317.264 C86.994,316.682 89.719,318.617 91.625,319.357 C93.946,320.258 95.881,319.829 98.25,319.332 C100.776,318.805 102.508,319.99 104.882,320.53 C107.491,321.126 110.21,317.824 109.852,315.328 C109.594,313.514 108.288,312.328 106.997,311.134 C106.036,310.243 103.807,308.49 104.307,307.468 C104.965,308.127 105.766,308.602 106.796,308.758 C109.658,309.189 112.417,308.832 115.297,309.563 C116.861,309.962 117.952,311.084 119.616,310.791 C121.415,310.472 123.098,308.251 124.465,307.231 C125.781,306.243 127.605,306.216 128.795,305.085 C129.467,304.445 130.375,303.546 130.623,302.635 C130.779,302.071 130.74,301.421 130.75,300.84 C130.749,300.955 132.207,299.597 132.139,299.674 C132.94,298.8 133.802,299.807 134.924,299.806 C135.747,299.806 136.409,299.196 136.885,298.592 C137.99,297.188 138.163,295.174 138.208,293.447 C138.231,292.533 137.191,289.327 138.283,288.921 C140.261,288.184 142.57,288.744 144.599,287.911 C146.179,287.262 147.713,286.394 149.189,285.393 C149.637,285.399 150.083,285.384 150.512,285.266 C151.724,284.932 152.955,282.843 153.706,281.918 C153.786,281.82 153.863,281.729 153.942,281.633 C155.264,280.45 156.522,279.232 157.706,278.05 C158.403,277.359 158.827,276.079 159.344,275.238 C160.049,274.09 161.117,273.154 161.786,272.015 C163.003,269.933 163.284,266.646 163.45,264.277 C163.662,261.199 165.525,259.299 167.836,257.671 C167.61,258.961 168.414,260.208 168.943,261.314 C170.143,263.832 172.447,265.469 175.319,264.32 C176.361,263.904 177.159,262.879 177.544,261.851 C177.845,261.048 177.843,260.273 177.785,259.51 C177.823,259.29 177.846,259.066 177.861,258.845 C178.048,255.72 178.425,254.035 181.683,253.073 C183.411,252.564 184.979,252.37 186.533,253.007 C186.632,253.175 186.691,253.385 186.686,253.656 C186.67,254.518 187.369,255.038 188.152,255.122 C189.053,255.219 190.188,255.302 191.21,255.108 C192.619,255.388 193.945,255.086 194.754,253.411 C195.17,252.549 194.304,251.508 193.521,251.713 C193.407,251.193 193.261,250.688 193.26,250.255 C194.647,250.225 196.044,250.19 197.362,249.746 C197.702,249.63 199.119,250.479 199.266,250.607 C199.826,251.097 200.569,251.146 201.278,251.115 C203.22,251.027 204.669,249.467 205.574,247.645 C205.764,247.773 206.008,247.79 206.195,247.695 C206.329,247.826 206.51,247.907 206.699,247.913 C207.077,247.92 207.448,247.921 207.792,247.739 C208.182,247.533 208.467,247.168 208.755,246.843 C209.259,246.268 208.556,245.513 207.966,245.893 C207.859,245.791 207.706,245.724 207.506,245.728 C207.107,245.739 206.665,245.744 206.272,245.867 C206.31,245.736 206.348,245.606 206.381,245.477 C207.013,245.274 207.386,244.657 207.467,243.98 C207.754,241.623 209.463,239.751 208.791,237.218 C208.382,235.676 207.631,234.579 208.574,233.088 C209.229,232.053 210.044,231.159 210.612,230.065 C211.318,228.705 210.821,227.825 209.732,226.967 C209.202,226.55 208.649,226.172 208.101,225.785 C207.944,225.6 207.77,225.425 207.552,225.272 C207.377,225.151 207.212,225.061 207.043,224.987 C207.002,224.951 206.958,224.921 206.916,224.887 C206.058,224.163 205.452,223.239 204.56,222.506 C204.601,222.28 204.661,222.043 204.741,221.794 C205.362,219.898 205.032,217.494 204.701,215.564 C204.367,213.619 204.174,211.716 204.06,209.769 C204.613,208.627 205.214,207.508 205.683,206.41 C206.438,204.646 207.715,203.825 209.686,203.988 C210.752,204.078 211.193,203.994 212.099,203.439 C213.991,202.281 215.318,199.964 216.397,198.108 C217.334,196.494 217.866,194.69 218.888,193.135 C219.568,192.1 220.396,191.18 221.318,190.354 C221.58,190.117 221.842,189.951 222.096,189.833 C222.711,190.28 222.831,190.87 222.437,191.607 C222.063,192.747 222.127,193.899 222.126,195.089 C222.127,195.632 222.117,196.16 222.104,196.683 C221.833,197.348 221.608,198.051 221.501,198.864 C221.388,199.729 221.556,200.606 221.681,201.476 C221.621,201.846 221.556,202.219 221.481,202.596 C221.379,203.107 221.384,203.655 221.494,204.178 C221.127,204.876 220.525,205.403 220.463,206.251 C220.314,208.346 222.006,209.368 223.844,209.343 C224.825,209.328 225.517,209.156 226.276,208.512 C227.164,207.756 227.199,208.942 227.259,209.645 C227.261,209.68 227.251,209.708 227.25,209.742 C226.99,209.939 226.722,210.125 226.438,210.285 C224.849,211.278 222.996,211.386 221.362,212.223 C218.156,213.87 217.274,217.179 217.596,220.462 C217.161,220.267 216.608,220.365 216.267,220.865 C215.784,221.57 214.882,222.762 214.658,223.568 C214.378,224.595 215.014,226.09 215.307,227.043 C215.996,229.278 213.73,231.019 214.33,233.251 C214.529,233.985 215.318,234.574 215.861,235.026 C217.149,236.099 218.186,236.935 219.089,238.386 C220.636,240.874 221.434,242.918 224.435,243.752 C226.527,244.336 228.166,243.679 230.135,243.106 C231.098,242.826 233.466,245.067 235.073,245.096 C237.506,245.142 239.874,242.963 241.448,241.364 C242.898,239.885 244.023,240.128 245.771,239.649 C246.288,239.505 246.602,239.05 246.946,238.677 C248.662,236.828 250.288,239.57 250.839,240.546 C252.706,243.865 256.51,244.054 259.908,244.757 C260.039,244.904 260.209,245.017 260.432,245.065 C260.897,245.169 261.362,245.229 261.827,245.262 C261.859,245.275 261.884,245.294 261.915,245.308 C263.046,244.933 264.24,244.786 265.419,244.87 C267.009,244.428 268.519,243.661 269.849,242.682 C271.287,241.622 272.433,240.252 273.991,239.348 C275.885,238.251 278.456,237.561 280.622,237.28 C282.593,237.023 284.623,237.13 286.605,237.137 C288.821,237.143 290.828,236.448 292.989,236.307 C294.767,236.194 296.475,235.4 298.058,234.642 C298.796,234.286 299.527,234.011 300.228,233.691 C300.341,233.794 300.47,233.887 300.611,233.971 C300.984,234.641 301.492,235.202 301.793,235.949 C302.054,236.594 301.662,237.357 302.323,237.875 C303.07,238.465 303.738,238.846 304.659,239.11 C306.325,239.588 308.313,239.075 309.869,238.467 C312.122,237.589 314.223,236.949 316.311,235.667 C320.018,233.39 323.7,230.003 326.426,226.613 C327.611,225.139 328.537,223.297 328.652,221.38 C328.709,220.432 328.646,219.627 328.373,218.723 C328.191,218.264 328.101,217.804 327.887,217.34 C327.897,217.028 327.906,216.716 327.916,216.407 C327.918,216.362 327.98,216.313 328.039,216.247 C329.106,215.301 330.067,214.519 330.32,213.034 C330.637,211.163 329.271,211.143 328.519,209.954 C326.677,207.035 327.218,204.869 328.99,202.187 C330.267,200.248 331.153,198.135 332.621,196.312 C333.677,195.004 335.294,192.683 336.877,192.018 C337.565,191.728 338.967,192.279 339.736,192.315 C341.236,192.383 342.906,193.349 343.639,194.66 C344.48,196.163 346.536,199.062 348.207,199.567 C350.733,200.327 353.271,200.458 355.895,200.481 C356.48,200.487 357.033,200.161 357.327,199.658 C358.159,198.248 358.593,196.909 358.444,195.26 C358.363,194.377 358.104,193.529 357.848,192.686 C357.475,191.448 357.953,190.05 358.234,188.845 C358.62,187.208 359.073,185.48 359.774,183.95 z M223.326,225.328 C224.144,225.847 224.605,226.615 225.082,227.428 C225.321,227.837 225.495,228.27 225.607,228.73 C224.689,229.672 224.043,229.649 223.665,228.661 C222.915,227.518 222.543,226.138 221.866,224.947 C221.655,224.578 221.409,224.228 221.137,223.89 C221.868,224.359 222.581,224.857 223.326,225.328 z M224.014,191.291 C224.082,191.088 224.141,190.85 224.188,190.598 C224.343,191.041 224.349,191.611 224.137,192.263 C223.976,192.754 223.784,193.209 223.58,193.644 C223.636,192.866 223.754,192.093 224.014,191.291 z M35.369,391.527 C35.166,390.843 35.177,390.193 35.649,389.274 C35.976,388.643 36.547,387.691 37.248,387.143 C37.419,387.387 37.639,387.596 37.897,387.735 C37.917,387.748 37.941,387.757 37.962,387.767 C36.666,388.84 35.859,390.12 35.369,391.527 z M85.289,387.389 C81.995,386.311 79.033,384.673 75.761,383.583 C74.854,383.282 73.996,382.901 73.153,382.51 C76.401,382.132 79.535,384.982 82.421,386.118 C84.444,386.915 86.522,387.534 88.628,387.948 C87.553,387.937 86.448,387.767 85.289,387.389 z M108.371,354.605 C108.818,356.187 108.124,357.646 107.427,359.057 C107.374,359.167 107.326,359.274 107.277,359.38 C107.62,357.323 107.851,355.194 107.855,353.188 C107.857,353.086 107.85,352.982 107.845,352.878 C108.022,353.465 108.215,354.056 108.371,354.605 z M106.85,347.698 C107.193,348.559 107.248,349.464 107.338,350.37 C106.766,348.657 105.85,346.972 105.247,345.408 C104.977,344.712 104.687,344.046 104.379,343.395 C105.375,344.706 106.224,346.127 106.85,347.698 z M203.209,221.304 C202.644,220.65 202.354,219.891 202.584,218.758 C202.868,217.355 202.485,216.329 202.503,214.952 C202.514,214.223 202.644,213.499 202.849,212.777 C203.081,214.854 203.583,216.877 203.586,218.985 C203.587,219.742 203.393,220.523 203.209,221.304 z M305.524,235.998 C304.896,235.906 305.007,235.49 304.834,234.82 C305.551,235.33 306.351,235.735 307.027,235.962 C307.045,235.967 307.063,235.971 307.082,235.978 C306.543,236.049 306.015,236.069 305.524,235.998 z M318.005,230.193 C316.984,231.144 315.894,232.039 314.731,232.823 C315.488,232.095 316.189,231.356 316.826,230.732 C318.319,229.268 320.004,228.054 321.689,226.844 C320.358,228.17 318.927,229.334 318.005,230.193 z" fill="#333333"/>
      <path d="M300.904,162.375 C299.916,163.339 299.132,164.406 298.413,165.585 C297.589,166.935 296.728,169.328 295.146,169.96 C293.733,170.526 292.056,170.228 290.577,170.265 C289.373,170.296 287.962,171.323 286.891,171.828 C284.623,172.899 282.316,174.063 281.058,176.341 C279.422,179.302 281.234,183.618 281.378,186.725 C281.521,189.782 278.998,191.743 277.293,194.028 C275.207,196.817 274.026,199.886 275.404,203.259 C275.835,204.317 276.16,205.561 276.18,206.701 C276.22,208.992 274.108,208.621 272.484,208.886 C270.479,209.214 268.69,210.045 266.823,210.81 C266.018,211.139 265.207,211.424 264.38,211.687 C263.97,211.749 263.58,211.868 263.207,212.045 C263.095,212.092 263.009,212.146 262.937,212.203 C262.616,211.799 262.137,211.534 261.546,211.518 C256.612,211.395 256.267,216.628 256.415,220.572 C253.521,220.916 251.117,221.334 248.517,218.812 C247.205,217.538 246.574,216.251 245.919,214.59 C245.753,214.174 245.455,213.799 245.125,213.442 C245.201,213.146 245.269,212.821 245.153,212.384 C245.126,212.276 245.092,212.175 245.062,212.072 C245.581,211.04 246.144,210.087 246.161,208.703 C246.18,206.799 244.813,205.661 243.63,204.346 C242.711,203.321 242.014,202.173 241.436,200.956 C241.736,200.901 242.021,200.63 241.896,200.295 C241.049,198.013 240.114,195.774 239.159,193.535 C238.083,191.015 237.422,187.965 235.956,185.663 C235.825,185.456 235.698,185.242 235.571,185.032 C235.483,184.575 235.367,184.118 235.177,183.669 C234.531,182.152 233.57,180.996 232.508,179.84 C232.334,179.55 232.163,179.256 231.982,178.965 C231.068,177.496 230.907,175.721 230.635,174.037 C230.454,172.937 230.299,171.737 230.037,170.568 C230.041,170.384 230.044,170.2 230.043,170.019 C230.042,168.598 230.361,166.456 228.963,165.524 C227.795,164.742 226.049,164.991 224.726,165.043 C222.486,165.131 220.434,165.604 218.709,167.056 C216.631,168.807 214.612,170.621 212.661,172.512 C212.389,172.776 212.112,173.018 211.831,173.25 C210.412,173.365 208.941,173.223 207.547,173.181 C205.562,173.119 204.017,173.62 202.351,174.682 C200.497,175.863 198.557,177.012 197.061,178.613 C196.37,179.351 195.135,180.804 193.902,181.534 C193.26,181.719 192.627,181.803 191.881,181.802 C191.616,181.659 191.371,181.421 191.156,181.06 C190.218,179.486 188.823,178.399 187.275,177.478 C185.917,176.673 184.464,176.352 183.087,175.738 C182.593,174.862 182.006,174.022 181.546,173.21 C181.536,173.193 181.527,173.181 181.518,173.167 C182.309,172.351 184.002,171.669 184.661,171.132 C184.898,170.939 184.945,170.512 184.795,170.251 C185.531,169.573 185.953,168.644 185.833,167.37 C185.748,166.432 185.123,165.672 184.124,165.66 C183.788,165.656 182.745,165.827 181.914,165.859 C182.36,164.539 182.188,163.021 181.908,161.444 C181.876,161.267 181.791,161.125 181.68,161.011 C181.813,160.787 181.945,160.558 182.064,160.322 C182.307,159.842 181.647,159.457 181.346,159.901 C181.148,160.195 180.941,160.457 180.736,160.703 C180.697,160.705 180.658,160.708 180.621,160.714 C180.364,160.759 180.11,160.806 179.854,160.852 C179.211,160.969 179.06,161.772 179.375,162.243 C178.854,162.918 178.529,163.656 178.654,164.828 C178.571,164.902 178.487,164.972 178.394,165.034 C177.645,165.531 177.182,166.634 177.761,167.452 C178.275,168.187 178.856,168.641 179.49,168.915 C178.002,169.11 176.442,169.185 176.06,169.199 C174.261,169.254 174.264,171.922 176.061,171.989 C177.641,172.049 178.59,173.024 179.283,174.238 C179.353,174.535 179.508,174.851 179.765,175.191 C179.853,175.385 179.938,175.581 180.019,175.775 C180.608,177.173 180.974,177.777 180.947,178.659 C180.919,179.534 181.681,180.196 182.513,180.224 C183.288,180.25 185.155,179.936 185.284,180.574 C185.478,181.534 185.651,182.404 186.211,183.221 C187.481,185.079 190.181,185.174 192.193,185.163 C194.789,185.148 196.879,183.553 199.448,183.262 C202.149,182.96 203.771,181.464 205.643,179.671 C207.666,177.729 211.203,177.637 213.265,175.541 C213.737,175.061 214.234,174.519 214.754,173.955 C217.674,172.82 220.219,170.375 222.431,168.389 C222.53,168.301 222.621,168.224 222.717,168.145 C223.617,168.051 224.558,168.105 225.422,168.112 C225.919,168.116 226.412,168.12 226.909,168.128 C226.916,168.413 226.923,168.698 226.921,168.982 C226.923,171.874 226.191,175.728 227.613,178.379 C228.769,180.53 230.809,181.858 232.149,183.858 C232.836,184.883 232.602,186.17 232.721,187.333 C232.85,188.581 233.304,189.69 233.83,190.814 C236.123,195.699 236.993,200.906 240.125,205.209 C240.792,206.66 241.761,207.981 242.671,209.395 C242.772,209.552 242.855,209.705 242.941,209.858 C242.878,210.069 242.797,210.295 242.676,210.557 C242.325,211.313 241.771,212.039 241.605,212.87 C241.42,212.788 241.191,212.791 240.991,212.946 C240.882,213.035 240.767,213.112 240.653,213.189 C239.448,213.458 238.065,213.441 237.185,213.482 C234.851,213.588 232.361,213.743 230.201,214.691 C229.402,215.042 228.701,215.527 228.194,216.149 C226.827,216.427 225.471,216.757 224.199,217.275 C223.669,217.492 223.282,218.094 223.639,218.65 C224.851,220.532 227.037,221.04 228.786,222.26 C229.719,222.913 230.802,223.867 231.973,224.6 C232.233,224.982 232.343,225.454 232.348,226.242 C232.351,226.818 232.79,227.149 233.319,227.213 C235.326,227.457 236.725,228.309 238.8,227.735 C240.45,227.28 240.689,225.496 240.68,224.059 C240.673,223.177 240.653,222.47 240.859,221.797 C241.532,221.023 242.172,220.249 242.796,219.591 C243.484,218.864 243.943,218.171 244.238,217.463 C244.434,217.903 244.633,218.343 244.89,218.753 C247.587,223.068 253.74,223.86 258.32,224.029 C259.337,224.065 260.106,223.172 260.139,222.209 C260.197,220.545 259.626,217.001 261.01,215.624 C261.257,215.764 261.544,215.864 261.885,215.912 C263.354,216.106 263.933,214.923 265.162,214.523 C267.102,213.892 268.873,212.793 270.771,212.055 C272.543,211.362 274.583,211.759 276.28,210.932 C278.67,209.761 278.848,207.461 278.699,205.071 C278.58,203.179 277.845,201.416 278.395,199.539 C279.044,197.321 280.853,195.485 282.236,193.705 C282.995,192.728 283.897,192.023 284.472,190.893 C285.259,189.353 285.285,187.503 285.236,185.818 C285.166,183.555 284.716,181.18 284.409,178.943 C284.179,177.265 286.44,176.257 287.63,175.627 C288.677,175.07 290.275,174.147 291.449,174.169 C293.085,174.205 295.031,173.906 296.512,173.198 C299.969,171.542 300.578,167.067 302.833,164.301 C303.921,162.966 302.188,161.122 300.904,162.375 z M188.672,180.08 C189.193,180.557 189.662,181.068 190.052,181.6 C189.358,181.378 188.912,180.941 188.672,180.08 z M208.794,175.229 C207.669,175.83 206.295,176.046 205.215,176.684 C202.849,178.087 201.639,180.167 198.64,180.357 C197.974,180.397 197.481,180.401 197.001,180.463 C197.17,180.291 197.333,180.124 197.492,179.963 C199.276,178.151 201.443,176.763 203.602,175.402 C205.501,174.205 207.781,174.438 209.979,174.553 C209.595,174.785 209.203,175.011 208.794,175.229 z M234.444,223.569 C234.149,223.522 233.859,223.431 233.575,223.311 C233.483,223.197 233.388,223.079 233.278,222.954 C232.072,221.593 230.524,220.956 230.046,219.048 C229.565,217.142 233.376,217.057 234.497,216.868 C236.431,216.545 239.403,216.328 241.639,215.329 C241.566,216.673 241.463,217.943 240.394,219.044 C239.629,219.831 239.248,220.451 239.056,221.16 C237.736,222.578 236.199,223.856 234.444,223.569 z M227.382,218.701 C227.394,218.9 227.428,219.11 227.473,219.323 C226.978,219.1 226.497,218.864 226.072,218.548 C226.504,218.403 226.943,218.275 227.386,218.155 C227.374,218.33 227.368,218.513 227.382,218.701 z M235.164,225.647 C235.435,225.637 235.71,225.604 235.985,225.529 C237.036,225.239 237.977,224.63 238.841,223.878 C238.652,226.46 236.961,226.094 235.164,225.647 z" fill="#333333"/>
      <path d="M396.993,181.05 C396.821,179.892 395.167,179.118 394.585,178.206 C394.456,178.005 394.277,177.857 394.045,177.791 C393.628,177.676 393.909,176.686 393.913,176.244 C393.917,174.602 393.918,172.969 394.026,171.332 C394.127,169.803 395.501,169.113 395.883,167.723 C396.289,166.248 396.021,164.499 395.815,163.008 C395.65,161.811 393.575,161.812 393.41,163.008 C393.361,163.352 393.323,163.688 393.292,164.025 C392.491,163.425 391.589,162.948 390.987,162.643 C390.061,162.169 389.287,163.48 390.172,164.039 C391.11,164.631 392.25,165.321 392.54,166.499 C392.442,166.094 391.418,167.114 391.248,167.231 C390.179,167.957 388.972,168.495 387.721,168.812 C385.337,169.414 384.857,171.316 384.406,173.486 C383.839,176.215 385.426,178.089 387.168,179.925 C389.332,182.203 389.743,186 392.898,187.234 C394.882,188.007 396.48,185.809 397.049,184.276 C397.431,183.246 397.147,182.087 396.993,181.05 z M391.619,183.876 C391.135,183.12 390.75,182.305 390.346,181.505 C388.997,178.818 385.834,176.554 386.91,173.34 C387.319,172.119 387.462,172.292 388.631,172.108 C389.666,171.943 390.804,171.057 391.642,170.486 C391.723,170.429 391.814,170.368 391.908,170.302 C391.79,171.138 392.026,172.15 392.073,172.924 C392.159,174.289 392.084,175.686 392.088,177.049 C392.09,177.579 392.001,178.549 392.483,178.964 C392.696,179.147 392.887,179.349 393.16,179.434 C393.872,179.657 393.319,179.574 393.413,179.719 C394.024,180.659 395.17,180.871 395.365,182.125 C395.631,183.827 394.241,187.99 391.619,183.876 z" fill="#333333"/>
      <path d="M432.095,161.815 C429.82,162.809 429.259,164.961 428.193,167.029 C427.57,168.233 427.117,169.567 426.638,170.882 C426.479,170.942 426.345,171.062 426.312,171.25 C426.267,171.525 426.215,171.822 426.162,172.132 C425.809,173.02 425.42,173.879 424.922,174.657 C422.65,178.218 426.531,182.017 429.902,179.273 C430.266,178.978 430.212,178.356 429.9,178.051 C428.917,177.079 427.694,175.98 427.675,174.475 C427.67,173.876 427.65,173.311 427.606,172.742 C427.863,171.997 428.123,171.255 428.397,170.516 C429.216,168.302 430.676,164.249 432.936,163.252 C433.915,162.819 433.066,161.39 432.095,161.815 z M426.064,176.082 C426.091,176.02 426.134,175.964 426.172,175.905 C426.456,176.701 427.021,177.469 427.629,178.158 C426.168,178.178 425.644,177.487 426.064,176.082 z" fill="#333333"/>
      <path d="M259.571,162.408 C259.459,161.856 258.719,162.052 258.663,162.531 C258.509,163.875 258.842,165.106 259.18,166.402 C259.406,167.265 259.854,168.447 259.204,169.256 C258.555,170.061 256.983,169.905 256.046,170.2 C254.673,170.63 253.635,172.146 252.677,173.117 C251.895,173.905 251.563,173.954 250.997,174.689 C250.222,175.702 250.411,176.478 249.148,177.34 C247.573,178.415 246.321,177.762 245.162,176.698 C243.468,175.142 244.975,173.432 246.46,172.614 C246.981,172.328 247.095,171.035 246.993,170.492 C246.855,169.755 246.498,169.312 245.91,168.871 C243.758,167.268 245.505,164.895 247.935,164.512 C248.384,164.44 248.236,163.816 247.834,163.783 C247.834,163.775 247.834,163.77 247.837,163.764 C247.805,163.767 247.772,163.773 247.74,163.777 C247.738,163.779 247.736,163.777 247.734,163.777 C247.721,163.78 247.706,163.783 247.694,163.785 C247.664,163.789 247.634,163.795 247.606,163.799 C248.145,163.305 248.659,162.784 249.181,162.262 C249.877,161.568 248.797,160.49 248.103,161.184 C247.29,161.998 246.48,162.784 245.765,163.686 C245.501,164.022 245.571,164.384 245.792,164.594 C244.071,165.769 242.873,167.906 244.926,169.3 C247.903,171.323 244.054,172.158 243.526,174.101 C242.966,176.158 244.301,177.651 246.056,178.614 C247.514,179.41 249.318,179.048 250.478,177.894 C252.503,175.886 254.251,171.631 257.513,171.271 C262.605,170.71 260.225,165.657 259.571,162.408 z" fill="#333333"/>
      <path d="M266.384,171.538 C266.332,171.541 266.278,171.547 266.228,171.549 C266.259,171.231 266.263,170.914 266.224,170.596 C266.138,169.906 265.167,169.673 264.952,170.423 C264.824,170.875 264.686,171.312 264.542,171.743 C262.22,172.153 259.748,173.18 258.503,175.07 C257.631,176.397 258.221,178.056 258.381,179.468 C258.59,181.303 258.548,183.544 259.193,185.315 C259.303,185.616 259.578,185.911 259.932,185.879 C262.829,185.606 263.199,182.709 263.212,180.284 C263.224,178.466 263.25,177.805 264.219,176.187 C264.805,175.207 265.502,174.084 265.909,172.915 C266.072,172.9 266.229,172.886 266.383,172.879 C267.241,172.833 267.248,171.502 266.384,171.538 z M263.234,174.778 C262.795,175.573 261.554,176.903 261.575,177.855 C261.609,179.372 262.284,183.385 260.456,184.202 C259.977,182.334 260.072,180.11 259.658,178.226 C259.042,175.41 261.471,173.903 263.968,173.256 C263.75,173.764 263.515,174.271 263.234,174.778 z" fill="#333333"/>
      <path d="M346.761,173.65 C345.446,174.01 344.611,172.96 343.862,172.152 C343.354,171.606 342.311,171.651 341.629,171.575 C340.067,171.401 338.655,172.121 337.586,173.191 C334.947,175.824 334.7,179.189 334.954,182.693 C334.996,183.283 335.59,183.677 336.136,183.372 C337.882,182.389 339.376,180.969 340.93,179.719 C342.658,178.329 344.561,177.108 346.396,175.831 C346.698,175.795 347,175.722 347.301,175.609 C348.508,175.159 348.044,173.295 346.761,173.65 z M336.699,181.185 C337.095,178.632 338.085,175.809 340.296,174.475 C341.667,173.647 342.569,174.312 343.621,175.087 C343.814,175.228 344.014,175.343 344.217,175.448 C341.589,177.151 339.295,179.452 336.699,181.185 z" fill="#333333"/>
      <path d="M327.95,445.327 C325.706,442.899 323.785,440.236 321.803,437.627 C321.791,437.602 321.784,437.578 321.769,437.552 C321.21,436.546 320.526,435.726 319.752,435.012 C318.402,433.355 316.972,431.764 315.353,430.325 C313.964,429.088 312.814,427.922 311.958,426.592 C311.747,425.095 311.89,423.522 312.36,422.063 C313.364,418.939 314.393,416.032 314.396,412.704 C314.397,411.187 313.989,410.002 313.288,408.686 C312.54,407.287 312.068,405.405 310.991,404.219 C310.087,403.222 309.425,402.043 308.524,401.04 C307.575,399.984 306.137,399.301 304.906,398.652 C303.231,397.772 301.811,396.955 300.53,395.536 C299.63,394.539 298.568,393.591 297.295,393.109 C295.904,392.58 294.54,392.442 293.067,392.359 C292.208,392.31 291.46,392.079 290.796,391.712 C290.09,391.054 289.425,390.324 288.804,389.486 C288.565,389.164 288.316,388.856 288.058,388.56 C287.586,387.495 287.293,386.342 286.714,385.354 C286.017,384.168 284.777,383.273 283.643,382.55 C280.936,380.823 277.555,380.305 275.297,377.867 C274.209,376.692 273.451,375.258 272.119,374.304 C271.573,373.912 271.018,373.552 270.467,373.195 C270.248,372.907 270.035,372.615 269.831,372.319 C269.01,371.129 268.574,369.817 267.7,368.633 C266.658,367.22 265.507,365.892 264.466,364.477 C263.713,363.458 262.834,362.823 261.954,361.899 C260.86,360.753 259.995,359.46 258.809,358.394 C258.419,358.042 257.967,357.718 257.491,357.41 C256.628,356.422 255.802,355.412 255.139,354.307 C252.789,350.388 248.059,351.364 245.468,354.528 C245.322,354.562 245.179,354.602 245.038,354.644 C243.752,353.509 241.264,353.903 241.264,356.084 C241.265,357.574 241.183,359.017 241.492,360.478 C241.919,362.475 241.326,364.565 241.265,366.566 C241.181,369.298 242.061,372.238 244.431,373.822 C246.044,374.9 247.986,375.495 249.375,376.887 C250.247,377.76 249.864,378.683 250.168,379.717 C250.567,381.07 250.797,382.402 250.899,383.812 C250.985,385.003 250.644,386.251 251.603,387.177 C252.875,388.404 254.513,388.987 255.811,390.241 C255.968,390.394 256.118,390.552 256.265,390.714 C256.778,392.289 257.843,393.47 258.97,394.606 C259.131,394.877 259.293,395.144 259.454,395.409 C260.507,397.147 261.8,398.652 263.007,400.276 C264.033,401.655 265.381,402.722 266.39,404.132 C266.904,404.851 266.64,405.848 267.672,406.134 C268.206,406.28 268.725,406.348 269.235,406.361 C269.362,406.454 269.483,406.549 269.62,406.635 C271.042,407.521 273,406.787 274.311,406.096 C275.277,405.588 275.787,405.094 276.9,405.346 C276.935,405.353 276.974,405.362 277.011,405.37 C277.25,405.798 277.502,406.223 277.767,406.638 C277.503,406.854 277.26,407.086 277.091,407.377 C276.387,408.576 276.909,410.18 277.353,411.37 C277.617,412.07 277.503,412.894 277.611,413.66 C277.44,413.971 277.38,414.341 277.602,414.663 C278.093,415.381 278.823,415.896 279.635,416.307 C280.182,416.669 280.787,416.932 281.454,417.047 C282.005,417.23 282.547,417.392 283.047,417.55 C285.734,418.401 288.357,419.386 291.006,420.316 C291.618,420.689 292.225,421.072 292.831,421.446 C294.905,422.726 297.019,423.917 298.898,425.484 C299.24,425.771 299.829,426.42 300.397,427.201 C300.398,428.179 300.33,429.208 300.071,430.172 C299.87,430.169 299.666,430.15 299.452,430.107 C298.214,429.844 297.044,429.24 295.855,428.824 C295.328,427.771 294.998,426.528 294.569,425.61 C293.32,422.932 290.499,420.827 287.551,422.051 C286.061,422.668 284.87,423.803 283.799,424.98 C283.077,425.774 281.355,427.479 281.5,428.667 C281.545,429.022 281.614,429.359 281.697,429.685 C281.587,429.837 281.519,430.035 281.517,430.28 C281.517,432.2 281.915,433.97 282.459,435.712 C282.472,436.169 282.49,436.627 282.519,437.092 C282.656,439.3 281.141,439.101 279.462,438.988 C279.107,438.964 278.761,438.914 278.426,438.845 C278.434,437.356 278.255,435.936 277.504,434.573 C276.385,432.536 273.892,432.814 272.3,431.48 C271.785,431.049 271.516,429.907 271.251,429.319 C270.889,428.523 269.649,427.876 268.968,427.403 C267.065,426.08 265.75,424.116 263.935,422.694 C262.356,421.457 261.708,419.52 259.984,418.358 C257.771,416.867 255.57,416.97 254.55,414.038 C253.75,411.742 252.989,410.857 250.838,409.709 C248.229,408.318 245.481,407.48 243.133,405.642 C241.295,404.202 239.468,402.783 237.439,401.62 C236.117,400.861 234.676,400.453 233.536,399.404 C232.731,398.664 232.313,397.439 231.868,396.469 C229.593,391.507 226.605,386.591 224.914,381.386 C224.293,379.478 225.419,377.395 224.303,375.632 C223.273,374.006 221.072,373.551 219.353,373.105 C218.411,372.86 217.712,372.446 216.911,371.891 C216.099,371.33 214.262,370.35 213.715,369.56 C212.657,368.037 211.693,366.399 209.698,366.096 C208.621,365.931 207.915,366.234 207.254,367.092 C206.826,367.645 206.511,368.248 206.148,368.83 C205.937,368.93 205.736,369.054 205.532,369.231 C205.458,369.283 205.401,369.327 205.354,369.366 C205.129,369.412 204.915,369.49 204.712,369.606 C204.035,369.985 203.659,370.46 203.436,371.052 C202.02,371.618 200.696,372.633 199.49,373.682 C198.919,373.664 198.34,373.606 197.832,373.617 C196.723,373.645 196.574,374.959 197.3,375.46 C194.919,376.883 192.749,378.683 190.252,379.961 C188.967,380.622 187.78,382.122 186.519,383.369 C185.337,383.429 184.223,383.422 183.091,383.962 C182.876,384.065 182.675,384.167 182.48,384.267 C180.93,383.592 179.299,383.651 177.677,384.63 C177.098,384.73 176.546,384.87 175.975,385.131 C175.812,385.208 175.659,385.284 175.517,385.357 C174.369,385.065 173.266,384.682 172.162,384.308 C171.12,383.242 169.934,382.283 168.745,381.412 C164.778,378.509 159.576,381.122 156.09,383.394 C152.857,385.5 149.599,388.811 148.117,392.388 C147.972,392.74 147.878,393.087 147.816,393.438 C146.217,395.388 145.708,397.233 146.641,399.855 C147.413,402.023 149.497,404.702 146.836,406.413 C145.226,407.447 142.965,407.869 141.199,408.623 C140.498,408.923 139.813,409.285 139.152,409.697 C138.569,409.893 137.994,410.117 137.433,410.389 C135.49,411.342 134.194,412.954 133.038,414.738 C131.71,416.783 130.124,418.971 129.649,421.388 C129.515,422.083 129.41,422.812 129.253,423.507 C128.511,424.455 127.656,425.309 126.619,425.994 C123.859,427.827 120.338,427.252 117.979,429.909 C116.394,431.694 115.523,435.367 116.299,437.653 C116.725,438.903 117.901,439.817 118.858,440.636 C119.975,441.594 120.484,442.457 122.026,442.63 C122.159,442.645 122.242,442.547 122.265,442.431 C123.584,442.855 125.15,441.485 124.366,439.866 C123.613,438.309 123.997,436.222 124.229,434.573 C124.332,433.839 124.513,433.12 124.729,432.414 C125.037,431.392 125.727,431.424 126.66,431.237 C130.174,430.538 132.852,427.484 133.143,423.93 C133.426,420.489 135.717,414.641 139.437,413.461 C141.479,412.813 143.553,412.451 145.532,411.587 C146.665,411.09 147.722,410.532 148.773,409.878 C149.798,409.241 150.582,408.074 151.863,407.997 C152.959,407.931 153.701,407.174 153.776,406.087 C153.999,402.775 154.101,399.873 153.11,396.666 C152.565,394.906 152.488,394.06 153.499,392.493 C154.387,391.116 155.848,390.009 157.058,388.929 C159.447,386.797 162.215,384.624 165.575,385.028 C168.14,385.333 169.805,389.079 172.009,390.175 C173.162,390.749 174.437,390.555 175.612,390.165 C176.82,389.763 178.535,389.277 179.601,388.652 C180.274,388.256 179.883,387.861 180.882,388.351 C181.396,388.602 181.698,389.171 182.191,389.461 C183.388,390.161 184.841,389.528 185.978,389.03 C188.814,387.785 190.559,384.817 193.299,383.422 C196.182,381.951 199.355,380.039 200.943,377.122 C201.138,376.763 201.195,376.404 201.157,376.073 C201.695,376.109 202.234,376.108 202.791,376.025 C203.375,375.937 204.178,375.462 204.675,375.17 C205.007,374.973 206.139,373.946 205.601,374.063 C205.925,373.973 206.207,373.809 206.447,373.572 C206.507,373.511 206.553,373.456 206.595,373.407 C206.891,373.348 207.178,373.257 207.44,373.106 C208.342,372.577 208.926,371.905 209.601,371.048 C210.356,371.923 211.12,373.269 211.912,373.73 C213.867,374.866 215.42,376.411 217.633,377.078 C218.422,377.317 219.251,377.451 220.053,377.656 C220.389,377.938 220.656,377.925 220.852,377.622 C220.879,378.319 220.905,379.015 220.918,379.712 C220.955,382.06 221.773,384.002 222.808,386.076 C225.018,390.506 227.09,395.034 229.215,399.504 C230.088,401.339 231.439,402.652 233.199,403.638 C235.559,404.964 237.72,406.054 239.863,407.767 C241.875,409.375 243.73,410.584 246.079,411.664 C247.028,412.101 247.971,412.547 248.901,413.024 C250.242,413.712 250.535,414.296 250.999,415.685 C251.628,417.565 252.768,418.865 254.367,420.02 C256.165,421.319 258.089,421.546 259.36,423.488 C260.419,425.103 261.91,426.245 263.278,427.578 C263.998,428.277 264.7,428.996 265.465,429.645 C266.305,430.356 267.775,430.853 268.276,431.881 C269.156,433.682 270.122,434.391 271.716,435.542 C272.133,435.846 272.69,435.949 273.227,436.012 C273.446,437.459 274.227,438.595 275.323,439.39 C275.327,439.604 275.333,439.797 275.342,439.96 C275.447,441.673 277.614,441.895 278.23,440.608 C278.423,440.644 278.616,440.673 278.808,440.698 C280.966,440.951 282.901,441.028 283.818,439.601 C283.865,439.732 283.911,439.866 283.96,439.999 C284.591,441.816 285.857,445.579 288.448,444.514 C289.059,444.263 289.554,443.802 289.539,443.085 C289.527,442.565 289.413,442.245 289.113,441.82 C288.833,441.421 288.245,441.149 287.769,441.31 C287.532,440.958 287.313,440.593 287.116,440.214 C286.669,439.412 286.328,438.545 285.966,437.703 C285.852,434.979 285.844,432.251 285.222,429.575 C285.018,428.703 286.783,427.174 287.688,426.451 C288.093,426.894 288.487,427.365 288.561,427.457 C289.577,428.671 290.483,429.967 291.493,431.179 C293.18,433.199 297.141,435.771 299.597,433.487 C299.67,433.42 299.734,433.345 299.804,433.275 L299.853,433.269 C300.783,433.394 301.67,433.348 302.402,432.971 C303.371,432.876 303.829,432.425 304.026,431.321 C304.366,429.412 302.922,427.003 301.634,425.353 C301.616,425.192 301.596,425.028 301.576,424.87 C301.229,422.32 298.137,420.959 295.283,420.019 C293.997,419.181 292.711,418.37 291.556,417.53 C290.007,416.406 288.365,415.474 286.622,414.687 C285.706,414.27 284.799,413.886 283.808,413.706 C283.126,413.58 281.488,413.799 281.158,412.945 C281.135,412.887 281.031,412.345 280.904,411.678 C281.043,411.024 281.091,410.3 281.089,409.384 C281.084,408.997 281.022,408.625 280.922,408.262 C281.663,407.55 282.293,406.838 282.453,405.712 C282.567,404.914 282.36,404.372 281.712,403.888 C280.607,403.063 279.101,402.58 277.643,402.337 C277.412,402.009 277.025,401.777 276.609,401.935 C276.424,402.007 276.245,402.082 276.063,402.158 C276.06,402.158 276.06,402.157 276.058,402.157 C275.096,402.103 274.102,402.702 273.303,403.154 C270.895,404.514 270.04,402.786 269.142,400.789 C268.552,399.479 267.849,398.766 266.758,397.825 C265.524,396.761 264.697,395.527 263.586,394.367 C262.224,392.949 260.603,391.493 259.869,389.624 C259.224,387.982 259.801,386.241 259.426,384.591 C258.712,381.461 256.874,378.934 254.824,376.527 C253.837,375.368 252.747,374.292 251.669,373.218 C250.279,371.832 248.363,371.246 248.203,368.99 C248.008,366.209 247.33,363.407 247.416,360.666 C247.469,358.931 247.792,357.712 249.057,356.534 C249.18,356.419 249.302,356.309 249.426,356.208 C250.429,356.348 251.286,356.545 251.689,356.669 C251.866,356.722 252.042,356.789 252.219,356.849 C253.647,358.954 255.616,360.722 257.144,362.758 C259.283,365.601 260.851,368.855 263.16,371.591 C264.232,372.862 265.407,373.779 266.685,374.818 C267.983,375.874 269.645,376.264 270.949,377.324 C272.239,378.373 273.13,379.82 274.446,380.854 C275.131,381.394 275.928,381.812 276.743,382.179 C278.048,383.194 279.406,384.129 280.814,384.932 C282.461,385.871 284.135,387.092 285.565,388.479 C285.579,388.511 285.593,388.544 285.606,388.578 C286.553,390.691 288.269,393.483 290.656,394.221 C290.804,394.267 290.952,394.306 291.103,394.343 C291.309,394.482 291.523,394.617 291.747,394.744 C293.84,395.927 295.945,396.955 298.135,397.954 C298.759,398.238 299.398,398.494 300.037,398.746 C302.031,400.508 304.665,401.359 306.526,403.261 C308.216,405.761 309.167,408.436 309.38,411.517 C309.577,414.344 308.808,417.171 308.679,419.993 C308.676,420.063 308.679,420.127 308.677,420.196 C308.296,421.395 308.027,422.601 308.083,423.831 C308.229,426.941 308.883,430.138 310.884,432.624 C313.173,435.465 317.154,435.856 319.058,439.139 C319.671,440.196 320.888,440.042 321.542,439.367 C323.413,441.609 325.283,443.857 327.393,445.883 C327.76,446.232 328.291,445.696 327.95,445.327 z M118.639,438.985 C117.205,437.155 117.345,435.867 117.882,433.696 C118.434,431.453 119.559,430.357 121.007,429.653 C120.959,429.748 120.911,429.839 120.867,429.939 C119.339,433.448 119.127,438.358 121.293,441.66 C121.372,441.78 121.457,441.887 121.547,441.979 C120.151,441.478 119.528,440.119 118.639,438.985 z M149.769,404.751 C149.824,404.108 149.755,403.403 149.558,402.639 C149.16,401.079 148.263,399.683 147.837,398.12 C147.636,397.374 147.727,396.715 147.98,396.112 C148.203,396.983 148.546,397.84 148.878,398.684 C149.637,400.624 149.758,402.656 149.871,404.702 C149.835,404.718 149.804,404.734 149.769,404.751 z M290.121,426.25 C290.008,426.104 289.884,425.947 289.756,425.789 C290.664,426.045 291.461,426.961 292.06,427.875 C292.76,428.947 293.371,430.025 294.105,430.937 C294.223,431.201 294.418,431.437 294.7,431.605 C295.264,432.176 295.915,432.642 296.72,432.96 C294.15,432.203 291.2,427.649 290.121,426.25 z M301.606,429.279 C301.701,429.507 301.776,429.728 301.83,429.944 C301.71,429.959 301.592,429.977 301.474,429.996 C301.527,429.761 301.569,429.52 301.606,429.279 z M254.992,383.886 C255.57,385.044 255.67,386.385 255.782,387.725 C255.768,387.713 255.756,387.701 255.743,387.69 C254.975,387.034 252.788,386.492 252.786,385.283 C252.783,383.573 252.667,381.65 252.327,379.83 C253.345,381.082 254.259,382.417 254.992,383.886 z M243.825,357.696 C243.856,357.436 243.946,357.215 244.082,357.024 C243.714,358.045 243.452,359.221 243.335,360.377 C243.287,359.926 243.22,359.191 243.199,358.444 C243.509,358.347 243.777,358.097 243.825,357.696 z M243.264,364.544 C243.311,364.126 243.356,363.714 243.393,363.299 C243.428,363.495 243.467,363.685 243.515,363.865 C244.216,366.413 243.916,369.178 244.821,371.643 C243.133,369.812 242.955,367.218 243.264,364.544 z" fill="#333333"/>
      <path d="M407.947,424.669 C406.773,424.441 405.059,421.005 404.234,420.092 C402.871,418.579 400.927,417.581 398.877,417.758 C396.539,417.962 394.412,419.818 392.488,420.99 C391.336,421.689 390.043,422.177 388.866,422.85 C387.914,423.394 386.293,424.841 385.17,424.848 C384.879,424.849 381.857,425.048 381.787,424.863 C381.498,424.124 380.947,423.364 380.21,423.013 C377.656,421.799 375.2,422.91 372.562,422.383 C371.447,422.161 370.667,421.033 370.008,420.204 C369.12,419.087 368.348,418.42 367.02,417.825 C364.517,416.707 361.85,417.737 359.794,419.25 C358.611,420.117 356.035,421.338 355.731,423.015 C355.484,424.378 356.896,425.241 357.765,426.011 C361.258,429.11 354.892,431.563 353.777,429.633 C352.779,427.904 352.593,425.993 351.311,424.384 C348.208,420.484 343.038,424.591 341.529,428.029 C341.189,428.806 341.144,429.548 341.378,430.356 C341.631,431.222 342.702,431.616 342.953,432.35 C343.566,434.132 343.775,435.629 344.003,437.48 C344.157,438.738 344.866,439.828 345.105,441.071 C345.318,442.163 347.146,442.193 347.334,441.071 C347.454,440.349 347.801,439.897 347.836,439.153 C347.855,438.721 347.517,438.436 347.142,438.371 C347.102,438.166 347.061,437.962 347.015,437.753 C346.711,436.397 346.995,434.897 346.818,433.506 C346.703,432.633 346.492,431.365 345.984,430.615 C345.396,429.748 344.582,429.554 345.338,428.659 C345.963,427.921 346.789,427.372 347.461,426.683 C348.726,425.385 349.447,426.577 350.145,427.801 C350.972,429.256 351.273,430.936 352.534,432.122 C353.602,433.128 355.101,432.976 356.37,432.534 C357.676,432.08 360.166,431.291 360.799,429.848 C361.495,428.265 361.185,426.893 360.209,425.497 C359.761,424.858 359.173,424.33 358.596,423.813 C357.501,422.837 359.127,422.996 359.952,422.238 C361.369,420.94 362.818,419.927 364.799,419.844 C366.593,419.771 367.609,421.25 368.551,422.465 C369.614,423.834 371.095,424.964 372.883,425.091 C375.054,425.244 378.353,424.087 379.515,426.436 C380.314,428.05 383.085,427.635 384.487,427.645 C386.784,427.662 388.326,426.4 390.257,425.229 C391.339,424.572 392.432,423.943 393.526,423.316 C393.655,423.443 393.841,423.503 394.011,423.381 C395.445,422.356 397.055,423.204 398.485,422.497 C399.217,422.135 400.409,421.088 401.011,422.543 C401.243,423.104 401.156,423.792 401.197,424.386 C401.227,424.867 401.308,425.414 401.45,425.949 C400.389,426.369 399.33,426.823 398.239,427.218 C394.768,428.467 391.003,427.331 387.514,428.451 C385.709,429.03 384.018,430.031 382.27,430.763 C380.682,431.428 379.131,431.974 377.841,433.143 C375.126,435.601 376.916,439.468 374.991,442.089 C373.512,444.105 376.73,446.476 378.402,444.72 C380.366,442.658 380.159,440.392 380.609,437.771 C380.912,436.013 382.887,435.703 384.315,435.151 C386.113,434.461 387.783,433.462 389.606,432.847 C391.12,432.338 393.059,432.699 394.651,432.542 C396.293,432.382 397.858,432.003 399.389,431.391 C402.289,430.229 404.774,428.288 407.948,427.83 C409.555,427.597 409.481,424.968 407.947,424.669 z M398.29,421.32 C397.559,421.769 396.736,421.831 395.911,421.921 C396.293,421.692 396.674,421.468 397.05,421.232 C398.158,420.544 399.172,420.354 400.098,420.522 C399.462,420.606 398.864,420.969 398.29,421.32 z M402.16,421.563 C402.78,422.097 403.344,422.79 403.848,423.582 C404.126,424.021 404.349,424.479 404.562,424.927 C403.997,425.058 403.443,425.226 402.897,425.415 C402.58,424.169 402.756,422.614 402.16,421.563 z" fill="#333333"/>
      <path d="M136.367,267.344 C135.453,266.428 134.914,265.414 134.124,264.418 C133.678,263.855 133.619,262.117 133.318,261.365 C132.571,259.494 131.375,257.926 129.494,257.164 C128.008,256.563 126.124,257.13 124.451,257.762 C124.437,257.127 124.403,256.49 124.308,255.855 C124.222,255.272 123.705,254.73 123.343,254.299 C122.91,253.78 122.488,252.869 122.219,252.214 C121.681,250.905 122.309,249.868 121.171,248.73 C120.543,248.1 119.744,247.878 118.915,247.721 C119.502,247.136 120.154,246.576 120.291,245.736 C120.614,243.764 119.908,242.109 118.903,240.437 C117.677,238.399 116.445,237.142 114.754,235.531 C112.921,233.788 111.347,231.338 109.946,229.235 C108.745,227.429 107.351,225.762 106.156,223.975 C105.059,222.333 104.668,220.025 103.696,218.25 C102.81,216.631 101.614,215.229 100.146,214.126 C98.495,212.88 97.607,211.959 97.717,209.899 C97.757,209.16 97.855,208.431 97.882,207.692 C97.922,206.653 97.076,206.017 97.62,205.003 C98.667,203.054 100.254,201.643 101.147,199.554 C102.612,196.137 105.335,191.416 102.246,187.957 C99.429,184.807 95.451,186.413 91.963,187.273 C89.834,187.792 88.17,187.238 86.188,186.692 C85.675,186.552 85.134,186.533 84.58,186.58 C85.988,185.325 87.5,184.151 88.678,182.73 C90.263,180.815 92.38,179.288 91.377,176.476 C90.498,174.008 87.269,174.865 85.368,175.26 C83.583,175.63 82.001,176.176 80.251,175.427 C78.979,174.881 77.779,174.2 76.476,173.726 C73.905,172.796 72.5,175.869 71.64,177.756 C70.869,179.448 70.302,181.212 69.537,182.91 C68.604,184.979 67.2,186.4 65.668,188.013 C63.485,190.307 61.739,193.036 60.912,196.107 C60.538,197.489 60.507,198.891 60.743,200.295 C60.893,201.184 61.729,201.835 62.205,202.54 C59.609,205.493 57.723,210.009 60.656,213.416 C62.37,215.407 64.487,213.122 66.289,210.74 C65.292,213.723 64.492,216.98 66.737,218.505 C67.603,219.091 69.046,218.806 69.908,218.393 C72.757,217.022 70.807,221.175 70.721,222.209 C70.571,223.992 69.393,225.513 69.22,227.29 C69.066,228.868 70.202,230.059 71.37,230.983 C73.429,232.614 76.638,233.849 79.156,232.585 C80.65,231.833 81.867,230.616 83.416,229.972 C83.927,229.782 84.457,229.703 85.006,229.74 C86.161,229.972 86.791,230.786 86.894,232.177 C86.026,232.832 84.991,233.424 84.29,234.261 C80.599,238.673 88.676,243.542 92.603,245.077 C92.867,246.879 91.731,249.038 90.979,250.536 C90.65,251.19 90.607,252.068 90.4,252.776 C90.348,252.959 90.284,253.143 90.224,253.324 C87.042,253.356 83.782,252.323 80.632,251.932 C78.571,251.674 74.822,251.39 74.509,254.256 C74.316,255.997 76.767,256.758 76.93,257.314 C77.583,259.546 79.636,261.654 77.847,264.114 C76.155,266.435 74.204,267.402 71.757,268.802 C70.305,269.633 68.028,271.152 67.967,273.017 C67.853,276.51 70.906,276.94 73.697,276.762 C75.263,276.663 76.809,276.361 78.382,276.309 C80.222,276.246 79.862,278.059 81.071,278.935 C84.321,281.292 88.875,279.063 92.479,278.328 C92.877,279.361 91.61,280.911 91.054,281.622 C90.078,282.866 89.215,283.097 87.862,282.311 C85.661,281.035 82.628,280.06 80.278,281.412 C77.806,282.834 76.414,285.164 74.958,287.485 C74.116,288.825 72.699,289.792 71.538,290.838 C70.228,292.021 68.793,293.493 67.305,294.422 C66.643,294.833 66.544,295.52 66.766,296.077 C66.639,296.079 66.508,296.077 66.38,296.079 C64.915,296.103 64.924,298.285 66.379,298.343 C69.654,298.474 72.902,298.901 76.183,298.645 C77.443,298.547 78.934,298.349 80.041,297.7 C80.908,297.193 81.223,296.216 81.559,295.285 C81.96,295.051 82.37,294.842 82.789,294.648 C83.371,294.636 83.951,294.593 84.492,294.456 C85.427,294.225 86.559,293.503 87.593,293.095 C88.013,292.996 88.433,292.9 88.851,292.806 C89.626,292.775 90.357,292.68 90.896,292.341 C91.693,292.152 92.483,291.953 93.259,291.718 C95.55,291.019 97.947,290.825 100.331,290.739 C102.703,290.653 104.999,289.216 107.355,289.704 C107.506,289.734 107.633,289.706 107.741,289.65 C109.006,293.059 113.781,292.211 116.663,291.387 C120.551,290.276 124.478,289.353 127.716,286.774 C128.863,285.862 130.715,286.542 131.787,285.47 C132.927,284.331 132.397,282.619 131.75,281.328 C131.075,279.982 130.03,279.691 128.61,279.972 C128.376,280.021 128.223,280.06 128.123,280.079 C128.115,280.057 128.117,280.037 128.108,280.018 C128.099,279.993 128.091,279.967 128.081,279.94 C128.147,279.856 128.251,279.733 128.391,279.554 C128.912,278.882 129.57,278.308 130.203,277.743 C132.537,275.653 135.557,273.972 137.071,271.12 C137.816,269.713 137.418,268.398 136.367,267.344 z M120.662,287.791 C118.614,288.533 116.195,289.152 114.052,289.629 C112.727,289.925 110.206,290.222 109.799,288.476 C110.198,288.397 110.608,288.299 111.047,288.159 C113.54,287.37 116.241,287.702 118.816,287.377 C119.921,287.238 121.485,287.044 122.988,286.632 C122.246,287.078 121.483,287.493 120.662,287.791 z M126.444,276.933 C125.557,277.876 124.429,279.404 124.844,280.798 C125.053,281.499 125.539,282.12 126.157,282.537 C126.142,282.589 126.131,282.639 126.124,282.696 C125.816,285.414 119.12,285.716 117.163,285.838 C115.49,285.944 113.815,285.762 112.152,286.049 C111.045,286.241 109.984,286.551 108.9,286.839 C108.82,286.769 108.736,286.702 108.644,286.631 C107.879,286.061 106.966,286.148 106.029,286.466 C105.499,286.282 104.979,286.093 104.484,285.993 C103.674,285.827 103.096,286.961 103.897,287.387 C103.902,287.388 103.907,287.391 103.914,287.395 C103.19,287.733 102.507,288.018 101.919,288.037 C98.857,288.135 95.628,288.587 92.589,288.945 C91.708,289.048 90.749,289.291 89.977,289.743 C89.721,289.896 89.53,290.14 89.445,290.425 C89.351,290.446 89.257,290.462 89.163,290.481 C89.078,290.402 88.955,290.328 88.75,290.322 C87.482,290.283 86.365,290.947 85.187,291.404 C84.873,291.493 84.561,291.589 84.254,291.69 C82.94,291.9 81.27,291.234 80.144,291.894 C79.297,292.388 78.931,293.525 78.599,294.382 C78.033,295.861 76.119,295.854 74.725,295.993 C73.061,296.161 71.386,296.142 69.713,296.108 C71.654,294.764 73.407,293.008 75.218,291.532 C77.786,289.437 79.345,286.432 82.113,284.553 C83.373,283.697 85.273,285.401 86.438,285.688 C87.539,285.961 88.487,286.035 89.607,285.877 C91.408,285.62 92.993,282.926 93.883,281.56 C94.806,280.137 95.347,278.26 94.35,276.754 C93.195,275.01 90.222,276.473 88.641,276.754 C87.047,277.041 85.549,277.486 83.912,277.398 C82.318,277.312 82.685,276.272 81.936,275.352 C80.787,273.938 79.272,273.687 77.545,273.782 C75.68,273.881 73.703,274.435 71.843,274.078 C69.574,273.644 75.233,270.69 75.876,270.348 C80.672,267.77 83.313,262.661 80.738,257.49 C80.412,256.827 80.01,255.939 79.516,255.453 C79.252,255.195 78.981,254.992 78.678,254.797 C80.191,254.725 81.942,255.163 83.271,255.37 C85.472,255.713 90.873,257.586 92.559,255.304 C93.18,254.462 93.332,252.979 93.506,251.986 C93.801,250.299 94.734,248.699 95.11,246.993 C95.365,245.832 95.786,243.944 94.813,242.971 C93.855,242.013 92.048,241.439 90.913,240.641 C89.521,239.666 88.085,238.431 87.24,236.939 C86.452,235.547 89.087,233.867 89.45,232.304 C90.379,228.304 84.734,226.603 81.935,228.018 C80.282,228.855 78.785,230.506 76.862,230.64 C75.222,230.754 71.357,228.908 71.817,227.009 C72.462,224.355 75.639,219.603 73.664,216.867 C72.828,215.712 71.664,214.849 70.159,215.27 C69.862,215.328 69.581,215.423 69.312,215.553 C68.775,215.791 68.078,215.68 68.225,215.945 C67.918,215.389 68.017,214.619 68.032,214.008 C68.108,211.229 69.591,208.787 69.913,206.079 C70.024,205.143 68.908,204.822 68.238,205.117 C66.242,205.998 65.064,208.411 63.837,210.086 C63.491,210.559 63.068,211.057 62.597,211.418 C61.933,211.927 61.98,209.587 61.989,209.308 C62.04,207.909 62.874,206.337 63.738,205.278 C64.449,204.405 65.646,203.731 65.402,202.456 C65.106,200.923 63.558,200.335 63.463,198.634 C63.237,194.568 66.568,190.965 69.125,188.229 C71.825,185.341 72.37,181.04 74.111,177.599 C75.325,175.202 76.595,176.158 78.504,177.124 C79.731,177.747 80.896,178.243 82.29,178.19 C83.77,178.134 85.256,177.71 86.705,177.431 C87.684,177.244 89.934,176.572 88.924,178.619 C88.521,179.432 87.248,179.983 86.623,180.678 C84.085,183.509 80.528,184.817 78.595,188.269 C77.988,189.357 78.738,190.962 80.092,190.878 C81.433,190.795 84.298,189.547 85.447,190.073 C86.822,190.707 88.246,190.814 89.738,190.831 C92.809,190.864 99.836,187.126 100.261,192.026 C100.446,194.175 98.795,196.619 97.973,198.548 C97.204,200.346 95.77,201.682 94.743,203.321 C94.04,204.443 93.945,205.562 94.205,206.83 C94.568,208.609 94.098,210.362 94.468,212.134 C95.056,214.952 98.13,216.514 99.886,218.542 C101.322,220.202 101.973,222.305 102.695,224.326 C103.35,226.159 104.822,227.317 105.876,228.898 C108.222,232.404 110.433,236.255 113.712,238.994 C115.08,240.135 116.302,242.14 116.965,243.782 C117.599,245.351 115.074,246.746 114.809,248.39 C114.654,249.331 115.045,250.058 115.946,250.396 C116.104,250.455 118.792,251.19 118.789,250.9 C118.797,251.85 118.892,253.227 119.474,254.02 C119.983,254.709 120.125,255.558 120.705,256.253 C121.527,257.231 121.21,258.877 121.21,260.114 C121.212,261.114 122.258,262.031 123.263,261.677 C124.453,261.262 125.626,260.814 126.835,260.455 C128.566,259.941 129.519,260.849 130.146,262.146 C129.992,262.049 129.841,261.95 129.681,261.856 C128.802,261.347 128.005,262.719 128.887,263.213 C129.646,263.639 130.298,264.119 130.846,264.649 C130.866,264.895 130.89,265.139 130.955,265.382 C131.109,265.938 131.67,266.505 131.927,266.976 C132.152,267.391 132.424,267.765 132.713,268.123 C132.875,269.148 132.784,270.267 132.409,271.483 C132.374,271.59 132.328,271.686 132.287,271.786 C130.034,273.715 126.799,276.556 126.444,276.933 z M129.742,282.576 C129.443,282.684 130.042,283.671 129.961,283.697 C129.09,283.971 128.167,283.956 127.297,284.263 C127.172,284.306 127.056,284.362 126.932,284.411 C127.232,284.018 127.444,283.572 127.548,283.061 C127.882,283.1 128.224,283.079 128.561,282.982 C128.963,282.867 129.348,282.718 129.742,282.576 z" fill="#333333"/>
      <path d="M59.94,229.622 C58.518,228.002 56.587,226.807 54.474,226.388 C51.788,225.857 49.54,227.222 47.229,228.363 C43.507,230.204 39.487,222.44 36.037,227.544 C34.688,229.544 34.002,231.436 34.45,233.827 C34.739,235.377 35.445,236.731 35.522,238.338 C35.561,239.141 35.366,239.98 35.146,240.819 C32.421,240.007 29.532,239.054 26.824,240.093 C22.438,241.775 23.179,247.182 23.797,250.873 C24.152,252.996 24.974,254.93 26.593,256.353 C28.256,257.815 27.119,260.099 28.48,261.511 C29.064,261.941 28.833,261.829 27.785,261.177 C27.402,261.446 27.061,261.714 26.71,262.023 C26.172,262.494 25.526,263.413 25.52,264.145 C25.494,266.374 23.117,268.82 22.542,271.103 C22.239,272.308 24.04,273.165 24.61,271.975 C25.424,270.282 26.287,268.382 27.454,266.895 C27.867,266.371 28.033,265.755 28.133,265.105 C28.31,263.971 29.069,263.694 29.844,263.04 C30.672,262.34 31.4,260.981 30.777,259.918 C30.214,258.955 30.7,259.856 30.605,258.573 C30.546,257.764 30.364,256.925 30.007,256.192 C29.176,254.487 27.883,253.331 27.424,251.416 C26.956,249.45 26.875,246.749 27.477,244.809 C28.311,242.126 34.243,244.661 36.032,245.01 C37.283,245.251 38.371,244.474 38.436,243.177 C38.547,241.091 39.417,239.185 39.048,237.065 C38.619,234.613 37.319,232.847 38.353,230.402 C39.403,227.921 41.369,230.537 42.983,231.264 C44.603,231.995 46.2,232.14 47.888,231.588 C49.81,230.961 51.324,229.594 53.431,229.585 C55.596,229.573 57.399,231.7 58.534,233.287 C59.76,235.005 60.669,237.013 61.372,238.994 C61.68,239.866 61.644,240.619 61.401,241.291 C61.455,240.799 61.457,240.294 61.376,239.774 C61.271,239.072 60.27,239.198 60.085,239.774 C59.451,241.752 58.959,243.673 57.706,245.319 C57.389,245.629 57.107,245.944 56.864,246.265 C56.16,246.949 55.081,247.934 55.111,248.822 C55.161,250.35 54.877,251.557 54.527,253.027 C54.13,254.683 54.55,256.807 54.599,258.499 C54.603,258.592 54.629,258.665 54.666,258.732 C54.393,259.876 54.018,260.981 53.507,262.079 C52.891,263.411 53.304,264.085 51.877,265.004 C48.98,266.876 46.479,269.071 43.38,270.694 C40.398,272.256 37.668,274.417 34.565,275.72 C33.278,276.262 26.166,276.914 26.565,273.962 C26.654,273.309 25.724,272.998 25.538,273.68 C25.456,273.995 25.429,274.283 25.445,274.549 C24.773,274.899 24.116,275.076 23.391,275.366 C22.75,275.623 22.378,276.656 23.174,277.026 C28.748,279.598 34.39,280.33 40.16,277.952 C42.907,276.819 44.93,275.485 47.132,273.509 C49.302,271.561 51.897,271.593 54.446,270.481 C59.515,268.271 59.775,262.469 59.776,257.635 C59.775,254.583 56.98,251.568 58.748,248.577 C60.202,246.122 63.302,245.286 64.439,242.553 C66.214,238.307 62.607,232.653 59.94,229.622 z M56.525,256.262 C56.288,256.029 55.911,255.99 55.595,256.121 C55.606,255.25 55.655,254.381 55.808,253.539 C55.954,254.172 56.131,254.815 56.328,255.469 C56.406,255.731 56.468,255.996 56.525,256.262 z M56.269,263.802 C55.653,266.481 53.704,267.241 51.301,267.781 C51.228,267.797 51.157,267.813 51.085,267.828 C51.943,267.177 52.799,266.517 53.68,265.904 C54.588,265.269 55.099,264.301 55.146,263.189 C55.232,261.241 56.535,259.493 56.742,257.476 C56.997,259.575 56.741,261.745 56.269,263.802 z" fill="#333333"/>
      <path d="M455.527,369.06 C454.183,368.188 452.603,368.102 451.045,368.009 C450.546,367.981 448.812,368.242 449.143,367.506 C449.655,366.358 451.045,365.465 451.948,364.645 C455.015,361.868 454.341,358.593 450.322,357.668 C449.335,357.444 448.341,357.286 447.364,357.014 C446.385,356.745 446.495,355.987 445.788,355.177 C444.738,353.976 442.996,353.341 441.645,352.511 C441.833,352.382 442.047,352.112 442.178,352.016 C442.438,351.825 442.707,351.649 442.978,351.478 C443.789,351.407 444.608,351.317 445.416,351.273 C446.202,351.235 446.409,350.326 446.04,349.869 C446.523,349.664 447.032,349.466 447.553,349.293 C448.88,349.245 450.169,349.059 451.425,348.534 C452.776,347.97 452.714,345.872 451.062,345.851 C449.152,345.827 447.081,346.151 445.106,346.797 C444.942,346.807 444.776,346.818 444.61,346.834 C442.777,347 441.113,347.91 439.225,347.572 C438.627,347.464 438.56,344.706 438.278,344.256 C437.347,342.773 435.91,341.751 435.009,340.25 C433.787,338.213 431.092,337.554 429.012,338.153 C425.868,339.056 423.868,341.222 421.942,343.701 C420.097,346.078 418.115,348.288 416.014,350.436 C413.978,352.519 408.92,351.233 407.557,354.051 C407.059,355.081 407.056,356.02 407.135,357.152 C407.192,357.95 407.125,358.762 407.016,359.582 C406.552,360.3 406.133,361.051 405.794,361.851 C404.737,364.339 405.024,366.683 405.629,369.23 C405.641,369.284 405.649,369.333 405.659,369.384 C405.2,369.329 404.736,369.236 404.288,369.19 C403.435,369.104 402.685,369.688 401.868,369.772 C401.116,369.848 400.516,370.218 400.287,370.975 C399.338,374.107 399.073,377.402 398.174,380.563 C398,381.176 397.771,381.778 397.514,382.37 C396.966,383.256 396.434,384.197 395.962,385.17 C395.113,386.404 394.119,387.535 393.023,388.489 C390.933,390.32 389.656,394.021 390.82,396.564 C390.517,396.792 390.364,397.202 390.616,397.667 C393.656,403.212 395.956,410.745 401.22,414.61 C403.915,416.59 407.408,416.124 410.531,416.118 C414.724,416.107 418.625,417.428 422.762,417.575 C425.91,417.686 428.092,415.908 430.594,414.2 C431.828,413.36 432.804,411.651 434.009,410.632 C435.139,409.677 436.186,408.634 437.279,407.643 C438.55,407.174 439.669,406.358 440.87,405.702 C442.493,404.821 443.956,403.755 445.541,402.834 C446.199,402.551 446.902,402.366 447.775,402.383 C450.022,402.427 451.601,401.708 452.145,399.717 C452.278,399.761 452.406,399.815 452.525,399.896 C452.804,400.089 453.156,399.635 452.887,399.425 C452.696,399.276 452.49,399.169 452.273,399.09 C452.285,399.005 452.3,398.921 452.31,398.83 C452.449,397.546 450.574,397.199 449.985,398.202 C448.745,400.312 446.18,399.252 444.211,400.405 C443.207,400.993 442.32,401.793 441.367,402.459 C440.172,403.293 438.797,403.672 437.651,404.606 C436.872,405.243 436.112,405.916 435.355,406.602 C435.079,406.688 434.8,406.769 434.513,406.844 C430.765,407.807 427.385,409.284 424.037,411.208 C420.775,413.082 417.838,414.719 414.023,414.154 C414.001,414.15 413.98,414.149 413.956,414.145 C412.958,413.986 412.012,413.07 411.184,412.586 C410.346,412.096 408.662,412.663 407.781,412.897 C401.554,414.562 399.975,408.227 399.324,403.517 C399.053,401.569 398.855,399.599 398.221,397.729 C397.808,396.51 396.576,395.815 396.29,394.558 C395.98,393.197 395.589,392.474 395.957,391.006 C396.019,390.765 396.091,390.521 396.168,390.277 C397.289,388.824 398.745,387.478 399.697,385.987 C401.014,383.916 401.623,381.607 402.057,379.241 C402.534,378.669 403.021,378.104 403.527,377.558 C405.219,375.732 406.784,374.033 407.409,371.65 C407.668,371.513 407.897,371.325 408.072,371.073 C408.649,370.238 408.644,369.159 408.664,368.184 C408.722,365.347 408.689,362.581 409.188,359.776 C409.208,359.66 409.221,359.52 409.228,359.371 C410.839,357.235 413.026,355.463 414.978,353.71 C415.13,353.572 415.285,353.439 415.437,353.306 C416.508,352.896 417.356,352.201 418.109,351.365 C418.464,351.155 418.833,350.952 419.225,350.757 C420.839,349.948 421.872,349.428 423.035,348.032 C424.281,346.537 425.224,344.946 426.946,343.92 C429.162,342.598 431.875,342.187 433.399,344.719 C434.539,346.611 435.154,349.053 437.047,350.395 C437.503,350.721 437.975,350.957 438.456,351.135 C436.021,354.702 443.421,355.541 444.016,358.086 C444.469,360.035 448.646,360.158 450.138,360.465 C452.203,360.887 450.568,362.351 449.639,363.232 C448.648,364.175 447.687,365.058 446.972,366.236 C446.16,367.575 446.437,369.551 448.039,370.113 C450.182,370.866 452.601,369.603 454.664,370.536 C455.653,370.982 456.465,369.67 455.527,369.06 z M421.644,414.427 C424.971,412.818 427.905,410.692 431.4,409.391 C431.895,409.205 432.399,409.038 432.906,408.879 C432.273,409.481 431.641,410.084 431.011,410.679 C428.574,412.982 426.455,415.604 422.759,415.544 C421.765,415.529 420.774,415.403 419.786,415.236 C420.395,415.006 421.011,414.734 421.644,414.427 z M396.857,399.485 C397.106,400.444 397.236,401.436 397.376,402.416 C397.573,403.796 397.746,405.178 398.01,406.539 C396.661,404.001 395.55,401.265 393.948,398.924 C394.984,398.907 395.555,397.745 395.328,396.758 C395.933,397.681 396.565,398.339 396.857,399.485 z M402.582,376.051 C402.764,374.911 402.962,373.777 403.234,372.672 C403.962,372.41 404.643,372.163 405.42,372.04 C404.881,373.486 403.759,374.809 402.582,376.051 z M411.093,354.934 C410.452,355.52 409.831,356.131 409.241,356.764 C409.286,355.925 409.431,355.181 409.859,354.891 C410.446,354.491 411.203,354.26 412.007,354.084 C411.702,354.37 411.4,354.656 411.093,354.934 z M432.47,341.574 C430.463,340.43 427.917,341.514 426.104,342.483 C425.851,342.62 425.62,342.76 425.401,342.912 C426.574,341.708 427.673,341.044 429.247,340.318 C431.178,339.428 432.605,340.654 433.795,342.132 C435.25,343.94 436.364,345.054 436.728,347.429 C436.732,347.451 436.739,347.467 436.74,347.487 C436.625,347.321 436.51,347.152 436.4,346.962 C435.195,344.893 434.662,342.822 432.47,341.574 z" fill="#333333"/>
      <path d="M176.865,247.197 C176.652,247.194 176.447,247.199 176.246,247.227 C176.162,247.209 176.077,247.203 175.99,247.209 C176.021,246.252 174.58,246.271 174.512,247.211 C174.483,247.615 174.177,248.003 173.899,248.278 C173.43,248.738 173.768,249.62 174.447,249.596 C174.581,249.592 174.709,249.576 174.835,249.553 C174.956,249.626 175.094,249.677 175.251,249.681 C175.682,249.688 176.264,249.708 176.57,249.339 C176.704,249.18 176.789,249.014 176.845,248.842 C176.852,248.842 176.858,248.838 176.866,248.839 C177.92,248.802 177.927,247.215 176.865,247.197 z" fill="#333333"/>
      <path d="M163.96,251.932 C163.695,251.955 163.421,252.001 163.155,252.002 C162.688,252.001 162.299,252.39 162.299,252.856 C162.3,253.324 162.688,253.713 163.155,253.712 C163.42,253.711 163.696,253.757 163.961,253.78 C164.464,253.824 164.885,253.329 164.884,252.857 C164.885,252.385 164.465,251.887 163.96,251.932 z" fill="#333333"/>
      <path d="M70.916,282.751 C70.588,282.567 70.219,282.583 69.925,282.745 C69.889,282.739 69.854,282.733 69.818,282.729 C69.56,282.691 69.255,282.744 69.049,282.913 C68.694,282.915 68.337,282.913 67.991,282.923 C67.286,282.946 67.257,283.932 67.888,284.056 C67.759,284.606 68.06,285.264 68.797,285.281 C69.861,285.302 71.117,285.143 71.382,283.899 C71.477,283.452 71.327,282.985 70.916,282.751 z" fill="#333333"/>
      <path d="M42.184,279.325 C42.133,279.322 42.079,279.32 42.027,279.32 C41.964,279.015 41.736,278.748 41.379,278.786 C41.009,278.768 40.724,278.859 40.494,279.02 C40.281,278.88 40.092,278.674 39.911,278.515 C39.712,278.337 39.44,278.61 39.618,278.809 C39.778,278.988 39.939,279.169 40.109,279.34 C40.121,279.351 40.135,279.363 40.148,279.375 C39.978,279.626 39.866,279.934 39.797,280.259 C39.789,280.266 39.78,280.273 39.771,280.279 C39.286,280.663 39.372,281.483 39.773,281.882 C40.168,282.279 40.988,282.366 41.372,281.881 C41.42,281.823 41.467,281.763 41.515,281.703 C41.613,281.648 41.71,281.583 41.804,281.508 C41.904,281.428 41.998,281.345 42.091,281.257 C42.107,281.244 42.109,281.239 42.114,281.23 C42.145,281.228 42.172,281.224 42.183,281.224 C43.412,281.206 43.405,279.374 42.184,279.325 z" fill="#333333"/>
      <path d="M45.527,219.906 C45.362,220.074 45.198,220.239 45.038,220.409 C44.893,220.414 44.748,220.416 44.604,220.415 C44.065,220.411 43.616,220.865 43.617,221.402 C43.617,221.944 44.066,222.388 44.606,222.392 C44.874,222.394 45.141,222.395 45.412,222.396 C45.586,222.397 45.749,222.345 45.894,222.264 C45.953,222.247 46.014,222.234 46.071,222.211 C46.777,221.918 47.167,221.368 47.192,220.597 C47.219,219.738 46.112,219.312 45.527,219.906 z" fill="#333333"/>
      <path d="M59.316,373.233 C59.466,372.422 58.603,371.675 57.786,372.171 C57.539,372.32 57.311,372.499 57.086,372.721 C56.956,372.717 56.826,372.713 56.699,372.709 C56.026,372.688 55.581,373.155 55.512,373.729 C54.894,373.996 54.515,374.779 55.143,375.407 C55.841,376.11 56.736,376.35 57.702,376.22 C58.862,376.065 59.417,374.863 59.477,373.83 C59.488,373.611 59.426,373.405 59.316,373.233 z" fill="#333333"/>
    </g>
    <text transform="matrix(1, 0, 0, 1, 239.225, 84.734)">
      <tspan x="-99.512" y="31" font-family="ArialRoundedMTBold" font-size="100" fill="#000000">Geo</tspan>
    </text>
  </g>
  <g id="Image RAW" display="none">
    <path d="M-0,0 L480,0 L480,480 L-0,480 z" fill="#FFF880"/>
    <path d="M125.834,290.877 L166.821,332.853 C218.503,288.259 264.546,241.103 304.949,191.36 C332.994,225.633 365.107,258.563 401.321,290.09 L401.321,396.219 C400.733,402.151 397.284,405.664 391.025,406.79 L81.793,406.79 C75.167,406.174 72.238,403.184 73.008,397.776 L73.008,344.995 L125.834,290.877 z M90.144,161.897 C90.144,146.164 95.57,132.679 106.386,121.552 C117.262,110.472 130.422,104.893 145.802,104.893 C161.182,104.893 174.31,110.472 185.097,121.552 C195.974,132.679 201.428,146.164 201.428,161.897 C201.428,177.676 195.974,191.096 185.097,202.162 C174.31,213.321 161.182,218.882 145.802,218.882 C130.422,218.882 117.262,213.321 106.386,202.162 C95.57,191.096 90.144,177.676 90.144,161.897 z M416.636,75.601 C415.371,64.831 409.671,59.006 399.685,58.172 L75.413,58.172 C65.89,58.172 61.08,63.103 61.08,72.875 L61.08,404.695 C61.08,405.404 61.145,406.127 61.205,406.79 C61.886,414.909 65.826,419.872 73.008,421.675 C74.643,422.092 76.432,422.352 78.37,422.402 L402.307,422.402 C411.891,422.402 416.636,417.531 416.636,407.73 L416.636,75.601 z M432.97,42.175 C435.158,44.673 436.266,48.218 436.266,52.842 L436.266,62.24 L436.177,62.24 L436.177,427.778 C436.177,437.5 431.399,442.385 421.905,442.385 L55.843,442.385 C55.719,442.385 55.598,442.385 55.441,442.385 L49.773,441.523 C47.706,440.878 46.043,439.83 44.778,438.427 C42.591,435.944 41.483,432.37 41.483,427.778 L41.483,418.379 L41.575,418.379 L41.575,52.842 C41.575,43.087 46.321,38.217 55.843,38.217 L421.905,38.217 C422.062,38.217 422.215,38.217 422.368,38.217 L428.04,39.065 C430.103,39.742 431.706,40.775 432.97,42.175" fill="#1A1919"/>
    <text transform="matrix(1, 0, 0, 1, 303.502, 129.906)">
      <tspan x="-95.059" y="5.41" font-family="ArialRoundedMTBold" font-size="80" fill="#000000">RAW</tspan>
    </text>
  </g>
  <g id="SimpleMedia logo">
    <path d="M98.06,246.602 L232.898,246.602 L232.898,381.44 L98.06,381.44 z" fill="#DC3E38"/>
    <path d="M247.566,246.602 L382.464,246.602 L382.464,381.44 L247.566,381.44 z" fill="#B89267"/>
    <path d="M247.566,98.342 L382.464,98.342 L382.464,233.24 L247.566,233.24 z" fill="#00A3DA"/>
    <path d="M98.398,98.342 L233.132,98.342 L233.132,233.071 L98.398,233.071 z" fill="#FFF101"/>
    <path d="M133.719,179.987 L145.224,191.769 C159.731,179.252 172.655,166.016 183.996,152.054 C191.868,161.674 200.882,170.917 211.047,179.766 L211.047,209.555 C210.882,211.22 209.914,212.206 208.157,212.522 L121.357,212.522 C119.497,212.349 118.675,211.51 118.891,209.992 L118.891,195.177 L133.719,179.987 z M123.701,143.784 C123.701,139.368 125.224,135.583 128.26,132.46 C131.313,129.35 135.007,127.784 139.324,127.784 C143.641,127.784 147.326,129.35 150.354,132.46 C153.407,135.583 154.938,139.368 154.938,143.784 C154.938,148.213 153.407,151.98 150.354,155.086 C147.326,158.218 143.641,159.779 139.324,159.779 C135.007,159.779 131.313,158.218 128.26,155.086 C125.224,151.98 123.701,148.213 123.701,143.784 z M215.346,119.562 C214.991,116.539 213.391,114.904 210.588,114.67 L119.566,114.67 C116.893,114.67 115.543,116.054 115.543,118.797 L115.543,211.934 C115.543,212.133 115.561,212.336 115.578,212.522 C115.769,214.801 116.875,216.194 118.891,216.7 C119.35,216.817 119.852,216.89 120.396,216.904 L211.324,216.904 C214.014,216.904 215.346,215.537 215.346,212.786 L215.346,119.562 z M219.931,110.18 C220.545,110.881 220.856,111.876 220.856,113.174 L220.856,115.812 L220.831,115.812 L220.831,218.413 C220.831,221.142 219.49,222.513 216.825,222.513 L114.073,222.513 C114.038,222.513 114.004,222.513 113.96,222.513 L112.369,222.271 C111.789,222.09 111.322,221.796 110.967,221.402 C110.353,220.705 110.042,219.702 110.042,218.413 L110.042,215.775 L110.068,215.775 L110.068,113.174 C110.068,110.436 111.4,109.069 114.073,109.069 L216.825,109.069 C216.869,109.069 216.912,109.069 216.955,109.069 L218.547,109.307 C219.126,109.497 219.576,109.787 219.931,110.18" fill="#1A1919"/>
    <path d="M284.6,300.876 C277.645,300.876 272.021,295.253 272.021,288.316 C272.021,281.369 277.645,275.729 284.6,275.729 C291.546,275.729 297.169,281.369 297.169,288.316 C297.169,295.253 291.546,300.876 284.6,300.876 z M284.02,266.593 C272.177,266.593 262.592,276.2 262.592,288.021 C262.592,299.86 272.177,309.449 284.02,309.449 C295.863,309.449 305.448,299.86 305.448,288.021 C305.448,276.2 295.863,266.593 284.02,266.593" fill="#1A1919"/>
    <path d="M284.6,300.876 C277.645,300.876 272.021,295.253 272.021,288.316 C272.021,281.369 277.645,275.729 284.6,275.729 C291.546,275.729 297.169,281.369 297.169,288.316 C297.169,295.253 291.546,300.876 284.6,300.876 z M284.02,266.593 C272.177,266.593 262.592,276.2 262.592,288.021 C262.592,299.86 272.177,309.449 284.02,309.449 C295.863,309.449 305.448,299.86 305.448,288.021 C305.448,276.2 295.863,266.593 284.02,266.593 z" fill-opacity="0" stroke="#1A1919" stroke-width="1.274"/>
    <path d="M291.425,288.316 C291.425,292.092 288.354,295.175 284.565,295.175 C280.776,295.175 277.714,292.092 277.714,288.316 C277.714,284.513 280.776,281.46 284.565,281.46 C288.354,281.46 291.425,284.513 291.425,288.316" fill="#1A1919"/>
    <path d="M291.425,288.316 C291.425,292.092 288.354,295.175 284.565,295.175 C280.776,295.175 277.714,292.092 277.714,288.316 C277.714,284.513 280.776,281.46 284.565,281.46 C288.354,281.46 291.425,284.513 291.425,288.316 z" fill-opacity="0" stroke="#1A1919" stroke-width="1.274"/>
    <path d="M327.152,300.876 C320.206,300.876 314.583,295.253 314.583,288.316 C314.583,281.369 320.206,275.729 327.152,275.729 C334.107,275.729 339.722,281.369 339.722,288.316 C339.722,295.253 334.107,300.876 327.152,300.876 z M326.582,266.593 C314.739,266.593 305.154,276.2 305.154,288.021 C305.154,299.86 314.739,309.449 326.582,309.449 C338.416,309.449 348.009,299.86 348.009,288.021 C348.009,276.2 338.416,266.593 326.582,266.593" fill="#1A1919"/>
    <path d="M327.152,300.876 C320.206,300.876 314.583,295.253 314.583,288.316 C314.583,281.369 320.206,275.729 327.152,275.729 C334.107,275.729 339.722,281.369 339.722,288.316 C339.722,295.253 334.107,300.876 327.152,300.876 z M326.582,266.593 C314.739,266.593 305.154,276.2 305.154,288.021 C305.154,299.86 314.739,309.449 326.582,309.449 C338.416,309.449 348.009,299.86 348.009,288.021 C348.009,276.2 338.416,266.593 326.582,266.593 z" fill-opacity="0" stroke="#1A1919" stroke-width="1.274"/>
    <path d="M333.986,288.316 C333.986,292.092 330.916,295.175 327.126,295.175 C323.337,295.175 320.275,292.092 320.275,288.316 C320.275,284.513 323.337,281.46 327.126,281.46 C330.916,281.46 333.986,284.513 333.986,288.316" fill="#1A1919"/>
    <path d="M333.986,288.316 C333.986,292.092 330.916,295.175 327.126,295.175 C323.337,295.175 320.275,292.092 320.275,288.316 C320.275,284.513 323.337,281.46 327.126,281.46 C330.916,281.46 333.986,284.513 333.986,288.316 z" fill-opacity="0" stroke="#1A1919" stroke-width="1.274"/>
    <path d="M277.74,353.736 L276.304,326.591 L276.304,308.311 L338.018,308.311 L337.732,311.741 L347.438,311.741 L363.442,301.171 L367.438,301.171 L367.438,354.874 L348.294,346.595 L336.305,346.301 L336.305,353.156 L277.74,353.736" fill="#1A1919"/>
    <path d="M277.74,353.736 L276.304,326.591 L276.304,308.311 L338.018,308.311 L337.732,311.741 L347.438,311.741 L363.442,301.171 L367.438,301.171 L367.438,354.874 L348.294,346.595 L336.305,346.301 L336.305,353.156 L277.74,353.736 z" fill-opacity="0" stroke="#1A1919" stroke-width="1.274"/>
    <path d="M187.932,265.43 L187.932,280.011 L202.353,280.011 L187.932,265.43 z M126.616,262.865 L126.616,365.069 L204.914,365.069 L204.914,283.471 L184.472,283.471 L184.472,262.865 L126.616,262.865 z M123.649,260.062 L187.499,260.062 L207.88,280.504 L207.88,368.035 L123.649,368.035 L123.649,260.062" fill="#1A1919"/>
    <path d="M187.932,265.43 L187.932,280.011 L202.353,280.011 L187.932,265.43 z M126.616,262.865 L126.616,365.069 L204.914,365.069 L204.914,283.471 L184.472,283.471 L184.472,262.865 L126.616,262.865 z M123.649,260.062 L187.499,260.062 L207.88,280.504 L207.88,368.035 L123.649,368.035 L123.649,260.062 z" fill-opacity="0" stroke="#1A1919" stroke-width="5.897"/>
    <path d="M267.212,189.459 L267.212,146.297 L290.88,146.297 L332.637,119.856 L332.637,211.726 L292.264,188.062 L267.212,189.459" fill="#1A1919"/>
    <path d="M267.212,189.459 L267.212,146.297 L290.88,146.297 L332.637,119.856 L332.637,211.726 L292.264,188.062 L267.212,189.459 z" fill-opacity="0" stroke="#1A1919" stroke-width="1.778"/>
    <path d="M339.782,147.677 C339.782,147.677 362.611,162.513 340.362,184.368" fill-opacity="0" stroke="#343534" stroke-width="5.541"/>
    <path d="M346.807,138.114 C346.807,138.114 361.054,146.111 362.81,164.264 C362.81,164.264 363.589,187.292 346.997,194.905" fill-opacity="0" stroke="#1A1919" stroke-width="5.541"/>
  </g>
  <g id="Collection" display="none">
    <g>
      <path d="M364.116,404.413 C364.825,424.711 349.749,441.712 330.442,442.387 C330.442,442.387 79.914,451.135 79.914,451.135 C60.608,451.809 44.382,435.901 43.673,415.603 C43.673,415.603 32.122,84.824 32.122,84.824 C31.413,64.526 46.49,47.525 65.796,46.85 C65.796,46.85 118.232,45.019 118.232,45.019 C193.973,42.374 172.38,92.192 259.773,89.14 C294.731,87.92 352.993,85.885 352.993,85.885 C352.993,85.885 364.116,404.413 364.116,404.413 z" fill="#B2DFFF"/>
      <path d="M364.116,404.413 C364.825,424.711 349.749,441.712 330.442,442.387 C330.442,442.387 79.914,451.135 79.914,451.135 C60.608,451.809 44.382,435.901 43.673,415.603 C43.673,415.603 32.122,84.824 32.122,84.824 C31.413,64.526 46.49,47.525 65.796,46.85 C65.796,46.85 118.232,45.019 118.232,45.019 C193.973,42.374 172.38,92.192 259.773,89.14 C294.731,87.92 352.993,85.885 352.993,85.885 C352.993,85.885 364.116,404.413 364.116,404.413 z" fill-opacity="0" stroke="#0085CF" stroke-width="1"/>
    </g>
    <path d="M47.047,120.856 C47.047,120.856 384.969,109.056 384.969,109.056 C384.969,109.056 396.057,426.584 396.057,426.584 C396.057,426.584 58.135,438.384 58.135,438.384 C58.135,438.384 47.047,120.856 47.047,120.856 z" fill="#D9D9D9"/>
    <path d="M68.21,144.624 C68.21,144.624 411.959,132.62 411.959,132.62 C411.959,132.62 422.428,432.419 422.428,432.419 C422.428,432.419 78.679,444.423 78.679,444.423 C78.679,444.423 68.21,144.624 68.21,144.624 z" fill="#F2F2F2"/>
    <g>
      <path d="M411.705,439.549 C411.705,439.549 79.609,451.146 79.609,451.146 C64.573,451.671 51.478,441.062 46.004,425.809 C49.64,433.364 65.37,438.132 73.311,437.854 C84.964,437.447 96.145,423.546 95.202,396.556 C95.202,396.556 87.191,167.143 87.191,167.143 C87.191,167.143 436.766,154.936 436.766,154.936 C436.766,154.936 445.248,397.843 445.248,397.843 C446.029,420.202 431.011,438.875 411.705,439.549 z" fill="#D9EFFF"/>
      <path d="M411.705,439.549 C411.705,439.549 79.609,451.146 79.609,451.146 C64.573,451.671 51.478,441.062 46.004,425.809 C49.64,433.364 65.37,438.132 73.311,437.854 C84.964,437.447 96.145,423.546 95.202,396.556 C95.202,396.556 87.191,167.143 87.191,167.143 C87.191,167.143 436.766,154.936 436.766,154.936 C436.766,154.936 445.248,397.843 445.248,397.843 C446.029,420.202 431.011,438.875 411.705,439.549 z" fill-opacity="0" stroke="#0085CF" stroke-width="1"/>
    </g>
    <path d="M160.135,253.109 L170.877,263.367 C183.56,251.627 194.793,239.289 204.576,226.347 C211.975,234.771 220.392,242.819 229.833,250.475 L230.771,277.327 C230.674,278.834 229.833,279.753 228.259,280.093 L150.016,282.825 C148.334,282.728 147.567,281.997 147.714,280.622 L147.247,267.268 L160.135,253.109 z M149.965,220.79 C149.826,216.809 151.08,213.35 153.718,210.439 C156.373,207.539 159.653,206.011 163.544,205.876 C167.436,205.74 170.807,207.035 173.634,209.743 C176.485,212.462 177.984,215.826 178.123,219.807 C178.262,223.799 177.001,227.243 174.346,230.139 C171.716,233.057 168.443,234.58 164.552,234.716 C160.66,234.852 157.281,233.561 154.431,230.834 C151.596,228.13 150.105,224.782 149.965,220.79 z M231.813,196.071 C231.398,193.357 229.904,191.934 227.37,191.811 L145.321,194.676 C142.912,194.76 141.739,196.051 141.825,198.523 L144.757,282.478 C144.763,282.658 144.786,282.84 144.807,283.007 C145.051,285.055 146.092,286.276 147.925,286.669 C148.342,286.76 148.797,286.81 149.288,286.806 L231.252,283.943 C233.677,283.859 234.834,282.584 234.748,280.105 L231.813,196.071 z M235.651,187.47 C236.226,188.082 236.538,188.969 236.579,190.139 L236.662,192.517 L236.639,192.518 L239.869,285.004 C239.955,287.464 238.789,288.742 236.387,288.826 L143.765,292.061 C143.733,292.062 143.703,292.063 143.663,292.064 L142.221,291.896 C141.693,291.751 141.262,291.501 140.93,291.157 C140.355,290.548 140.043,289.654 140.002,288.492 L139.919,286.114 L139.942,286.113 L136.713,193.627 C136.627,191.159 137.784,189.885 140.194,189.8 L232.816,186.566 C232.856,186.565 232.894,186.563 232.933,186.562 L234.376,186.726 C234.904,186.879 235.318,187.127 235.651,187.47" fill="#1A1919"/>
    <path d="M316.173,356.764 C309.903,356.983 304.657,352.091 304.438,345.838 C304.22,339.576 309.112,334.315 315.381,334.096 C321.642,333.877 326.888,338.784 327.107,345.046 C327.325,351.299 322.434,356.545 316.173,356.764 z M314.571,325.879 C303.895,326.251 295.557,335.213 295.93,345.869 C296.302,356.541 305.244,364.883 315.92,364.51 C326.595,364.137 334.933,355.192 334.561,344.52 C334.189,333.864 325.246,325.506 314.571,325.879" fill="#1A1919"/>
    <path d="M316.173,356.764 C309.903,356.983 304.657,352.091 304.438,345.838 C304.22,339.576 309.112,334.315 315.381,334.096 C321.642,333.877 326.888,338.784 327.107,345.046 C327.325,351.299 322.434,356.545 316.173,356.764 z M314.571,325.879 C303.895,326.251 295.557,335.213 295.93,345.869 C296.302,356.541 305.244,364.883 315.92,364.51 C326.595,364.137 334.933,355.192 334.561,344.52 C334.189,333.864 325.246,325.506 314.571,325.879 z" fill-opacity="0" stroke="#1A1919" stroke-width="1.274"/>
    <path d="M321.929,345.227 C322.048,348.631 319.377,351.507 315.962,351.626 C312.546,351.745 309.689,349.062 309.57,345.659 C309.45,342.231 312.114,339.382 315.53,339.263 C318.945,339.144 321.81,341.799 321.929,345.227" fill="#1A1919"/>
    <path d="M321.929,345.227 C322.048,348.631 319.377,351.507 315.962,351.626 C312.546,351.745 309.689,349.062 309.57,345.659 C309.45,342.231 312.114,339.382 315.53,339.263 C318.945,339.144 321.81,341.799 321.929,345.227 z" fill-opacity="0" stroke="#1A1919" stroke-width="1.274"/>
    <path d="M354.53,355.424 C348.268,355.643 343.023,350.751 342.804,344.498 C342.586,338.236 347.477,332.975 353.738,332.756 C360.007,332.537 365.246,337.445 365.465,343.707 C365.683,349.96 360.799,355.205 354.53,355.424 z M352.937,324.539 C342.261,324.912 333.923,333.873 334.296,344.529 C334.668,355.201 343.61,363.543 354.286,363.17 C364.953,362.797 373.298,353.852 372.926,343.18 C372.554,332.524 363.604,324.166 352.937,324.539" fill="#1A1919"/>
    <path d="M354.53,355.424 C348.268,355.643 343.023,350.751 342.804,344.498 C342.586,338.236 347.477,332.975 353.738,332.756 C360.007,332.537 365.246,337.445 365.465,343.707 C365.683,349.96 360.799,355.205 354.53,355.424 z M352.937,324.539 C342.261,324.912 333.923,333.873 334.296,344.529 C334.668,355.201 343.61,363.543 354.286,363.17 C364.953,362.797 373.298,353.852 372.926,343.18 C372.554,332.524 363.604,324.166 352.937,324.539 z" fill-opacity="0" stroke="#1A1919" stroke-width="1.274"/>
    <path d="M360.295,343.887 C360.413,347.291 357.743,350.167 354.327,350.286 C350.911,350.405 348.054,347.723 347.935,344.319 C347.816,340.891 350.48,338.042 353.895,337.923 C357.311,337.804 360.175,340.459 360.295,343.887" fill="#1A1919"/>
    <path d="M360.295,343.887 C360.413,347.291 357.743,350.167 354.327,350.286 C350.911,350.405 348.054,347.723 347.935,344.319 C347.816,340.891 350.48,338.042 353.895,337.923 C357.311,337.804 360.175,340.459 360.295,343.887 z" fill-opacity="0" stroke="#1A1919" stroke-width="1.274"/>
    <path d="M311.653,404.628 L309.504,380.205 L308.928,363.727 L364.558,361.784 L364.409,364.885 L373.158,364.58 L387.251,354.548 L390.853,354.422 L392.544,402.831 L375.026,395.971 L364.21,396.083 L364.426,402.262 L311.653,404.628" fill="#1A1919"/>
    <path d="M311.653,404.628 L309.504,380.205 L308.928,363.727 L364.558,361.784 L364.409,364.885 L373.158,364.58 L387.251,354.548 L390.853,354.422 L392.544,402.831 L375.026,395.971 L364.21,396.083 L364.426,402.262 L311.653,404.628 z" fill-opacity="0" stroke="#1A1919" stroke-width="1.274"/>
    <path d="M212.595,328.39 L213.054,341.534 L226.053,341.08 L212.595,328.39 z M157.243,328.008 L160.46,420.136 L231.039,417.672 L228.47,344.118 L210.044,344.762 L209.395,326.187 L157.243,328.008 z M154.48,325.575 L212.035,323.565 L231.051,341.35 L233.806,420.252 L157.879,422.903 L154.48,325.575" fill="#1A1919"/>
    <path d="M212.595,328.39 L213.054,341.534 L226.053,341.08 L212.595,328.39 z M157.243,328.008 L160.46,420.136 L231.039,417.672 L228.47,344.118 L210.044,344.762 L209.395,326.187 L157.243,328.008 z M154.48,325.575 L212.035,323.565 L231.051,341.35 L233.806,420.252 L157.879,422.903 L154.48,325.575 z" fill-opacity="0" stroke="#1A1919" stroke-width="5.897"/>
    <path d="M302.4,256.689 L301.041,217.782 L322.376,217.037 L359.184,191.889 L362.076,274.702 L324.938,254.641 L302.4,256.689" fill="#1A1919"/>
    <path d="M302.4,256.689 L301.041,217.782 L322.376,217.037 L359.184,191.889 L362.076,274.702 L324.938,254.641 L302.4,256.689 z" fill-opacity="0" stroke="#1A1919" stroke-width="1.778"/>
    <path d="M366.501,216.742 C366.501,216.742 387.546,229.397 368.178,249.797" fill-opacity="0" stroke="#343534" stroke-width="5.541"/>
    <path d="M372.532,207.9 C372.532,207.9 385.626,214.661 387.781,230.969 C387.781,230.969 389.208,251.702 374.491,259.087" fill-opacity="0" stroke="#1A1919" stroke-width="5.541"/>
  </g>
  <defs/>
</svg>
